<svg width="18" height="18" viewBox="0 0 18 18" fill="none" xmlns="http://www.w3.org/2000/svg">
  <symbol id="search" viewBox="0 0 18 18" fill="none">
    <path d="M0.5 1.25001C0.500657 1.13017 0.529831 1.01221 0.585111 0.90588C0.640391 0.799551 0.720187 0.707909 0.817903 0.638531C0.915618 0.569154 1.02844 0.524033 1.14705 0.506901C1.26566 0.489768 1.38665 0.501116 1.5 0.540007L17.096 8.34701C17.2173 8.40762 17.3193 8.50082 17.3906 8.61616C17.4619 8.7315 17.4997 8.86441 17.4997 9.00001C17.4997 9.1356 17.4619 9.26852 17.3906 9.38385C17.3193 9.49919 17.2173 9.59239 17.096 9.65301L1.5 17.46L1.424 17.478C1.31391 17.5045 1.19926 17.5056 1.08866 17.4814C0.978063 17.4571 0.8744 17.4081 0.785465 17.3381C0.69653 17.268 0.624637 17.1787 0.575193 17.0768C0.525749 16.975 0.500041 16.8632 0.5 16.75V12.21C0.5 11 1.47 9.98101 2.71 9.96001L9.25 9.79001C9.52 9.78001 10 9.55001 10 9.00001C10 8.45001 9.5 8.21001 9.25 8.21001L2.71 8.04001C2.1203 8.02875 1.55852 7.78669 1.14531 7.36582C0.732105 6.94495 0.500416 6.37882 0.5 5.78901V1.25001Z" fill="currentColor"/>
</symbol>
</svg>
