<svg xmlns="http://www.w3.org/2000/svg">
  <symbol id="shortcut" width="20" height="20" viewBox="0 0 20 20" fill="none">
    <path fill-rule="evenodd" clip-rule="evenodd" d="M4.5 3H15.5C15.8978 3 16.2794 3.15804 16.5607 3.43934C16.842 3.72064 17 4.10218 17 4.5V15.5C17 15.8978 16.842 16.2794 16.5607 16.5607C16.2794 16.842 15.8978 17 15.5 17H4.5C4.10218 17 3.72064 16.842 3.43934 16.5607C3.15804 16.2794 3 15.8978 3 15.5V4.5C3 4.10218 3.15804 3.72064 3.43934 3.43934C3.72064 3.15804 4.10218 3 4.5 3ZM1.5 4.5C1.5 3.70435 1.81607 2.94129 2.37868 2.37868C2.94129 1.81607 3.70435 1.5 4.5 1.5H15.5C16.2956 1.5 17.0587 1.81607 17.6213 2.37868C18.1839 2.94129 18.5 3.70435 18.5 4.5V15.5C18.5 16.2956 18.1839 17.0587 17.6213 17.6213C17.0587 18.1839 16.2956 18.5 15.5 18.5H4.5C3.70435 18.5 2.94129 18.1839 2.37868 17.6213C1.81607 17.0587 1.5 16.2956 1.5 15.5V4.5ZM13.14 5.891C13.2423 5.72131 13.2733 5.51801 13.2263 5.32553C13.1792 5.13305 13.0578 4.96702 12.8887 4.86371C12.7196 4.7604 12.5165 4.72821 12.3238 4.77417C12.131 4.82013 11.9643 4.94051 11.86 5.109L6.36 14.109C6.25768 14.2787 6.22667 14.482 6.27375 14.6745C6.32083 14.867 6.44217 15.033 6.61127 15.1363C6.78036 15.2396 6.98347 15.2718 7.17623 15.2258C7.36898 15.1799 7.53571 15.0595 7.64 14.891L13.14 5.891Z" fill="currentColor"></path>
  </symbol>

  <symbol id="audio-clip" width="20" height="20" viewBox="0 0 20 20" fill="none">
    <path fill-rule="evenodd" clip-rule="evenodd" d="M10 2C9.07174 2 8.1815 2.36875 7.52513 3.02513C6.86875 3.6815 6.5 4.57174 6.5 5.5V8.5C6.5 8.95963 6.59053 9.41475 6.76642 9.83939C6.94231 10.264 7.20012 10.6499 7.52513 10.9749C7.85013 11.2999 8.23597 11.5577 8.66061 11.7336C9.08525 11.9095 9.54037 12 10 12C10.4596 12 10.9148 11.9095 11.3394 11.7336C11.764 11.5577 12.1499 11.2999 12.4749 10.9749C12.7999 10.6499 13.0577 10.264 13.2336 9.83939C13.4095 9.41475 13.5 8.95963 13.5 8.5V5.5C13.5 4.57174 13.1313 3.6815 12.4749 3.02513C11.8185 2.36875 10.9283 2 10 2ZM8 5.5C8 4.96957 8.21071 4.46086 8.58579 4.08579C8.96086 3.71071 9.46957 3.5 10 3.5C10.5304 3.5 11.0391 3.71071 11.4142 4.08579C11.7893 4.46086 12 4.96957 12 5.5V8.5C12 9.03043 11.7893 9.53914 11.4142 9.91421C11.0391 10.2893 10.5304 10.5 10 10.5C9.46957 10.5 8.96086 10.2893 8.58579 9.91421C8.21071 9.53914 8 9.03043 8 8.5V5.5ZM5 8.25C5 8.05109 4.92098 7.86032 4.78033 7.71967C4.63968 7.57902 4.44891 7.5 4.25 7.5C4.05109 7.5 3.86032 7.57902 3.71967 7.71967C3.57902 7.86032 3.5 8.05109 3.5 8.25V8.5C3.50012 10.094 4.08589 11.6325 5.14599 12.8229C6.2061 14.0134 7.66663 14.7729 9.25 14.957V16.5H7.75C7.55109 16.5 7.36032 16.579 7.21967 16.7197C7.07902 16.8603 7 17.0511 7 17.25C7 17.4489 7.07902 17.6397 7.21967 17.7803C7.36032 17.921 7.55109 18 7.75 18H12.25C12.4489 18 12.6397 17.921 12.7803 17.7803C12.921 17.6397 13 17.4489 13 17.25C13 17.0511 12.921 16.8603 12.7803 16.7197C12.6397 16.579 12.4489 16.5 12.25 16.5H10.75V14.957C12.3334 14.7729 13.7939 14.0134 14.854 12.8229C15.9141 11.6325 16.4999 10.094 16.5 8.5V8.25C16.5 8.05109 16.421 7.86032 16.2803 7.71967C16.1397 7.57902 15.9489 7.5 15.75 7.5C15.5511 7.5 15.3603 7.57902 15.2197 7.71967C15.079 7.86032 15 8.05109 15 8.25V8.5C15 9.82608 14.4732 11.0979 13.5355 12.0355C12.5979 12.9732 11.3261 13.5 10 13.5C8.67392 13.5 7.40215 12.9732 6.46447 12.0355C5.52678 11.0979 5 9.82608 5 8.5V8.25Z" fill="currentColor"></path>
  </symbol>

  <symbol id="video-clip" width="20" height="20" viewBox="0 0 20 20" fill="none">
    <path fill-rule="evenodd" clip-rule="evenodd" d="M3.75 4.5C3.55109 4.5 3.36032 4.57902 3.21967 4.71967C3.07902 4.86032 3 5.05109 3 5.25V14.75C3 15.164 3.336 15.5 3.75 15.5H12.25C12.4489 15.5 12.6397 15.421 12.7803 15.2803C12.921 15.1397 13 14.9489 13 14.75V12.16C13 12.0285 13.0346 11.8992 13.1004 11.7853C13.1661 11.6713 13.2607 11.5767 13.3745 11.5108C13.4884 11.445 13.6176 11.4102 13.7492 11.4101C13.8807 11.4099 14.01 11.4444 14.124 11.51L17.5 13.453V6.547L14.124 8.491C14.0099 8.55664 13.8805 8.5911 13.7489 8.5909C13.6173 8.59071 13.488 8.55588 13.3741 8.48991C13.2602 8.42394 13.1657 8.32915 13.1 8.21507C13.0343 8.10099 12.9998 7.97163 13 7.84V5.25C13 5.05109 12.921 4.86032 12.7803 4.71967C12.6397 4.57902 12.4489 4.5 12.25 4.5H3.75ZM1.5 5.25C1.5 4.65326 1.73705 4.08097 2.15901 3.65901C2.58097 3.23705 3.15326 3 3.75 3H12.25C12.8467 3 13.419 3.23705 13.841 3.65901C14.2629 4.08097 14.5 4.65326 14.5 5.25V6.544L17.126 5.032C17.316 4.92252 17.5315 4.86496 17.7508 4.86511C17.9702 4.86526 18.1856 4.9231 18.3755 5.03284C18.5653 5.14257 18.723 5.30034 18.8326 5.49029C18.9423 5.68024 19 5.89569 19 6.115V13.885C19 14.1043 18.9423 14.3198 18.8326 14.5097C18.723 14.6997 18.5653 14.8574 18.3755 14.9672C18.1856 15.0769 17.9702 15.1347 17.7508 15.1349C17.5315 15.135 17.316 15.0775 17.126 14.968L14.5 13.456V14.75C14.5 15.3467 14.2629 15.919 13.841 16.341C13.419 16.7629 12.8467 17 12.25 17H3.75C3.15326 17 2.58097 16.7629 2.15901 16.341C1.73705 15.919 1.5 15.3467 1.5 14.75V5.25Z" fill="currentColor"></path>
  </symbol>

  <symbol id="mention" width="20" height="20" viewBox="0 0 20 20" fill="none">
    <path fill-rule="evenodd" clip-rule="evenodd" d="M2.50001 10C2.50001 8.0109 3.29019 6.10324 4.69671 4.69672C6.10323 3.2902 8.01089 2.50002 10 2.50002C11.9891 2.50002 13.8968 3.2902 15.3033 4.69672C16.7098 6.10324 17.5 8.0109 17.5 10V10.645C17.5 11.669 16.67 12.5 15.645 12.5C15.3413 12.5 15.0501 12.3794 14.8354 12.1647C14.6206 11.9499 14.5 11.6587 14.5 11.355V6.75002C14.5009 6.55902 14.4288 6.37489 14.2986 6.23519C14.1683 6.09549 13.9897 6.01075 13.7991 5.99825C13.6085 5.98575 13.4203 6.04643 13.273 6.16792C13.1256 6.28941 13.0301 6.46255 13.006 6.65202C12.3378 6.05207 11.5053 5.66577 10.6157 5.54283C9.72616 5.41989 8.82014 5.56593 8.01424 5.96215C7.20834 6.35838 6.53942 6.98667 6.09354 7.7662C5.64766 8.54573 5.44522 9.44084 5.51225 10.3364C5.57929 11.2319 5.91273 12.0869 6.4697 12.7914C7.02666 13.4958 7.78166 14.0175 8.63757 14.2894C9.49348 14.5612 10.4111 14.5707 11.2725 14.3167C12.1339 14.0627 12.8995 13.5568 13.471 12.864C13.7146 13.2152 14.0398 13.502 14.4186 13.6998C14.7975 13.8977 15.2186 14.0007 15.646 14C16.5356 13.9998 17.3887 13.6462 18.0177 13.017C18.6467 12.3879 19 11.5346 19 10.645V10C18.9999 7.98401 18.3229 6.02643 17.0775 4.44107C15.8321 2.85571 14.0906 1.73438 12.1319 1.25683C10.1733 0.779276 8.11106 0.973157 6.27575 1.80739C4.44045 2.64163 2.93839 4.06791 2.01034 5.8576C1.08228 7.64729 0.781991 9.69676 1.15759 11.6775C1.53319 13.6582 2.56294 15.4554 4.08176 16.7811C5.60058 18.1068 7.52052 18.8842 9.53382 18.9886C11.5471 19.093 13.5372 18.5185 15.185 17.357C15.2679 17.3012 15.3388 17.2295 15.3936 17.1459C15.4484 17.0623 15.4859 16.9687 15.504 16.8704C15.5221 16.7721 15.5203 16.6712 15.4989 16.5737C15.4774 16.4761 15.4367 16.3837 15.379 16.3021C15.3214 16.2205 15.248 16.1512 15.1632 16.0984C15.0785 16.0455 14.984 16.0101 14.8853 15.9942C14.7867 15.9784 14.6858 15.9824 14.5888 16.0061C14.4917 16.0297 14.4003 16.0726 14.32 16.132C13.1968 16.9235 11.8778 17.3911 10.5069 17.484C9.13598 17.5769 7.76593 17.2913 6.54625 16.6586C5.32658 16.0258 4.30417 15.0702 3.59062 13.896C2.87707 12.7217 2.49981 11.3741 2.50001 10ZM10 13C10.7957 13 11.5587 12.6839 12.1213 12.1213C12.6839 11.5587 13 10.7957 13 10C13 9.20437 12.6839 8.44131 12.1213 7.8787C11.5587 7.31609 10.7957 7.00002 10 7.00002C9.20436 7.00002 8.4413 7.31609 7.87869 7.8787C7.31608 8.44131 7.00001 9.20437 7.00001 10C7.00001 10.7957 7.31608 11.5587 7.87869 12.1213C8.4413 12.6839 9.20436 13 10 13Z" fill="currentColor"></path>
  </symbol>

  <symbol id="emoji-2" width="20" height="20" viewBox="0 0 20 20" fill="none">
    <path fill-rule="evenodd" clip-rule="evenodd" d="M2.5 10C2.5 8.01088 3.29018 6.10322 4.6967 4.6967C6.10322 3.29018 8.01088 2.5 10 2.5C11.9891 2.5 13.8968 3.29018 15.3033 4.6967C16.7098 6.10322 17.5 8.01088 17.5 10C17.5 11.9891 16.7098 13.8968 15.3033 15.3033C13.8968 16.7098 11.9891 17.5 10 17.5C8.01088 17.5 6.10322 16.7098 4.6967 15.3033C3.29018 13.8968 2.5 11.9891 2.5 10ZM10 1C7.61305 1 5.32387 1.94821 3.63604 3.63604C1.94821 5.32387 1 7.61305 1 10C1 12.3869 1.94821 14.6761 3.63604 16.364C5.32387 18.0518 7.61305 19 10 19C12.3869 19 14.6761 18.0518 16.364 16.364C18.0518 14.6761 19 12.3869 19 10C19 7.61305 18.0518 5.32387 16.364 3.63604C14.6761 1.94821 12.3869 1 10 1ZM7.5 9.5C7.89782 9.5 8.27936 9.34196 8.56066 9.06066C8.84196 8.77936 9 8.39782 9 8C9 7.60218 8.84196 7.22064 8.56066 6.93934C8.27936 6.65804 7.89782 6.5 7.5 6.5C7.10218 6.5 6.72064 6.65804 6.43934 6.93934C6.15804 7.22064 6 7.60218 6 8C6 8.39782 6.15804 8.77936 6.43934 9.06066C6.72064 9.34196 7.10218 9.5 7.5 9.5ZM14 8C14 8.19698 13.9612 8.39204 13.8858 8.57403C13.8104 8.75601 13.6999 8.92137 13.5607 9.06066C13.4214 9.19995 13.256 9.31044 13.074 9.38582C12.892 9.4612 12.697 9.5 12.5 9.5C12.303 9.5 12.108 9.4612 11.926 9.38582C11.744 9.31044 11.5786 9.19995 11.4393 9.06066C11.3001 8.92137 11.1896 8.75601 11.1142 8.57403C11.0388 8.39204 11 8.19698 11 8C11 7.60218 11.158 7.22064 11.4393 6.93934C11.7206 6.65804 12.1022 6.5 12.5 6.5C12.8978 6.5 13.2794 6.65804 13.5607 6.93934C13.842 7.22064 14 7.60218 14 8ZM13.477 12.597C12.861 14.173 11.431 14.961 10 14.961C8.57 14.961 7.14 14.173 6.523 12.597C6.303 12.037 6.781 11.5 7.383 11.5H12.617C13.219 11.5 13.697 12.037 13.477 12.597Z" fill="currentColor"></path>
  </symbol>

  <symbol id="formatting" width="20" height="20" viewBox="0 0 20 20" fill="none">
    <g clip-path="url(#clip0_7_9964)">
      <path fill-rule="evenodd" clip-rule="evenodd" d="M6.94114 3.95199C6.48214 2.57399 4.52714 2.58899 4.08814 3.97399L0.0351441 16.774C-0.020535 16.9624 -5.804e-05 17.1651 0.0921725 17.3386C0.184403 17.5121 0.341022 17.6425 0.528356 17.7017C0.71569 17.7609 0.918778 17.7442 1.09396 17.6553C1.26914 17.5663 1.40242 17.4122 1.46514 17.226L2.56614 13.75H8.62614L9.78914 17.237C9.81928 17.3316 9.86792 17.4194 9.93224 17.495C9.99655 17.5707 10.0753 17.6329 10.1638 17.6779C10.2523 17.723 10.3489 17.7499 10.448 17.7573C10.547 17.7647 10.6466 17.7524 10.7408 17.721C10.835 17.6896 10.9221 17.6398 10.9969 17.5745C11.0718 17.5092 11.1329 17.4296 11.1767 17.3405C11.2206 17.2514 11.2463 17.1544 11.2524 17.0553C11.2585 16.9562 11.2448 16.8568 11.2121 16.763L6.94214 3.95299L6.94114 3.95199ZM8.12614 12.25L5.51814 4.42699L3.04114 12.25H8.12614ZM14.3241 6.71299C15.3002 6.35351 16.3673 6.32505 17.3611 6.63199C18.1254 6.86789 18.7939 7.34238 19.2688 7.98592C19.7438 8.62945 20 9.40819 20.0001 10.208V17C20.0001 17.1989 19.9211 17.3897 19.7805 17.5303C19.6398 17.671 19.4491 17.75 19.2501 17.75C19.0512 17.75 18.8605 17.671 18.7198 17.5303C18.5792 17.3897 18.5001 17.1989 18.5001 17V16.255C17.6508 16.8917 16.6829 17.3524 15.6531 17.61C15.074 17.7548 14.4647 17.7233 13.9035 17.5197C13.3423 17.316 12.8547 16.9495 12.5031 16.467C10.8481 14.192 12.4731 11 15.2871 11H18.5001V10.208C18.5001 9.22399 17.8591 8.35499 16.9191 8.06499C16.2394 7.85514 15.5096 7.87482 14.8421 8.12099L14.6001 8.20999C14.2875 8.32513 14.0047 8.50913 13.7727 8.74835C13.5408 8.98757 13.3656 9.2759 13.2601 9.59199L13.2121 9.73699C13.1474 9.92323 13.0118 10.0765 12.8349 10.1635C12.6579 10.2506 12.4538 10.2644 12.2668 10.2021C12.0797 10.1398 11.9247 10.0063 11.8353 9.83055C11.7459 9.65478 11.7293 9.45088 11.7891 9.26299L11.8371 9.11799C12.0137 8.58857 12.307 8.10563 12.6955 7.70491C13.0839 7.30418 13.5575 6.99594 14.0811 6.80299L14.3241 6.71299ZM18.5001 12.5H15.2871C13.7001 12.5 12.7831 14.301 13.7171 15.585C14.0741 16.076 14.6971 16.302 15.2891 16.155C16.1908 15.9295 17.0332 15.5123 17.7591 14.932L18.5001 14.339V12.5Z" fill="currentColor"></path>
    </g>
    <defs>
      <clipPath id="clip0_7_9964">
        <rect width="20" height="20" fill="currentColor"></rect>
      </clipPath>
    </defs>
  </symbol>

  <symbol id="plus" width="20" height="20" viewBox="0 0 20 20" fill="none">
    <path fill-rule="evenodd" clip-rule="evenodd" d="M10.75 3.25C10.75 3.05109 10.671 2.86032 10.5303 2.71967C10.3897 2.57902 10.1989 2.5 10 2.5C9.80109 2.5 9.61032 2.57902 9.46967 2.71967C9.32902 2.86032 9.25 3.05109 9.25 3.25V9.25H3.251C3.05209 9.25 2.86032 9.32902 2.71967 9.46967C2.57902 9.61032 2.5 9.80109 2.5 10C2.5 10.1989 2.57902 10.3897 2.71967 10.5303C2.86032 10.671 3.05109 10.75 3.25 10.75H9.25V16.75C9.25 16.9489 9.32902 17.1397 9.46967 17.2803C9.61032 17.421 9.80109 17.5 10 17.5C10.1989 17.5 10.3897 17.421 10.5303 17.2803C10.671 17.1397 10.75 16.9489 10.75 16.75V10.75H16.75C16.9489 10.75 17.1397 10.671 17.2803 10.5303C17.421 10.3897 17.5 10.1989 17.5 10C17.5 9.80109 17.421 9.61032 17.2803 9.46967C17.1397 9.32902 16.9489 9.25 16.75 9.25H10.75V3.25Z" fill="currentColor"></path>
  </symbol>

  <symbol id="code-block" width="20" height="20" viewBox="0 0 20 20" fill="none">
    <path fill-rule="evenodd" clip-rule="evenodd" d="M9.21215 2.73698C9.24328 2.64348 9.25568 2.54476 9.24865 2.44647C9.24162 2.34818 9.21531 2.25223 9.1712 2.16411C9.12709 2.07598 9.06606 1.99741 8.99158 1.93288C8.91711 1.86834 8.83066 1.8191 8.73715 1.78798C8.64365 1.75686 8.54494 1.74446 8.44664 1.75148C8.34835 1.75851 8.2524 1.78483 8.16428 1.82894C8.07616 1.87304 7.99758 1.93408 7.93305 2.00855C7.86851 2.08302 7.81928 2.16948 7.78815 2.26298L5.28815 9.76298C5.2253 9.95181 5.24003 10.1579 5.32911 10.3359C5.41819 10.5138 5.57432 10.6491 5.76315 10.712C5.95199 10.7748 6.15806 10.7601 6.33603 10.671C6.514 10.5819 6.6493 10.4258 6.71215 10.237L9.21215 2.73698ZM15.2502 3.00198C15.0512 3.00198 14.8605 3.081 14.7198 3.22165C14.5792 3.3623 14.5002 3.55307 14.5002 3.75198C14.5002 3.95089 14.5792 4.14166 14.7198 4.28231C14.8605 4.42296 15.0512 4.50198 15.2502 4.50198H17.2502C17.3165 4.50198 17.38 4.52832 17.4269 4.5752C17.4738 4.62209 17.5002 4.68568 17.5002 4.75198V16.252C17.5002 16.3183 17.4738 16.3819 17.4269 16.4288C17.38 16.4756 17.3165 16.502 17.2502 16.502H4.25015C4.18385 16.502 4.12026 16.4756 4.07338 16.4288C4.02649 16.3819 4.00015 16.3183 4.00015 16.252V12.752C4.00015 12.5531 3.92114 12.3623 3.78048 12.2217C3.63983 12.081 3.44907 12.002 3.25015 12.002C3.05124 12.002 2.86048 12.081 2.71982 12.2217C2.57917 12.3623 2.50015 12.5531 2.50015 12.752V16.252C2.50015 17.218 3.28415 18.002 4.25015 18.002H17.2502C17.7143 18.002 18.1594 17.8176 18.4876 17.4894C18.8158 17.1612 19.0002 16.7161 19.0002 16.252V4.75198C19.0002 4.28785 18.8158 3.84273 18.4876 3.51454C18.1594 3.18636 17.7143 3.00198 17.2502 3.00198H15.2502ZM11.5602 3.50198C11.4961 3.42388 11.4169 3.35952 11.3274 3.31277C11.2378 3.26602 11.1398 3.23784 11.0391 3.22992C10.9384 3.222 10.8371 3.2345 10.7414 3.26668C10.6456 3.29886 10.5573 3.35004 10.4819 3.41717C10.4064 3.48429 10.3452 3.56597 10.3021 3.65731C10.259 3.74865 10.2347 3.84775 10.2308 3.94869C10.2269 4.04963 10.2435 4.15031 10.2794 4.2447C10.3154 4.33909 10.3701 4.42524 10.4402 4.49798L11.9962 6.25098L10.4402 8.00098C10.3716 8.074 10.3183 8.16002 10.2836 8.25396C10.2488 8.3479 10.2332 8.44785 10.2376 8.54792C10.2421 8.64799 10.2666 8.74615 10.3096 8.8366C10.3527 8.92706 10.4134 9.00797 10.4882 9.07458C10.563 9.14118 10.6504 9.19212 10.7453 9.22439C10.8401 9.25666 10.9404 9.26961 11.0403 9.26247C11.1403 9.25533 11.2377 9.22825 11.327 9.18282C11.4163 9.1374 11.4956 9.07455 11.5602 8.99798L13.5602 6.74998C13.682 6.61273 13.7494 6.43554 13.7494 6.25198C13.7494 6.06842 13.682 5.89124 13.5602 5.75398L11.5602 3.50198ZM3.99915 9.05998C3.85056 9.19191 3.65569 9.25948 3.45733 9.24785C3.25896 9.23623 3.07332 9.14636 2.94115 8.99798L0.941154 6.74998C0.81927 6.61273 0.751953 6.43554 0.751953 6.25198C0.751953 6.06842 0.81927 5.89124 0.941154 5.75398L2.94115 3.50198C3.00521 3.42388 3.08439 3.35952 3.17393 3.31277C3.26347 3.26602 3.36153 3.23784 3.46223 3.22992C3.56293 3.222 3.6642 3.2345 3.75995 3.26668C3.8557 3.29886 3.94396 3.35004 4.01944 3.41717C4.09492 3.48429 4.15607 3.56597 4.19921 3.65731C4.24235 3.74865 4.26659 3.84775 4.27049 3.94869C4.27438 4.04963 4.25785 4.15031 4.22188 4.2447C4.18591 4.33909 4.13124 4.42524 4.06115 4.49798L2.50415 6.25098L4.06115 8.00098C4.12678 8.0746 4.17725 8.16045 4.20966 8.2536C4.24207 8.34675 4.25578 8.44538 4.25002 8.54384C4.24427 8.6423 4.21914 8.73866 4.17609 8.8274C4.13305 8.91614 4.07292 8.99451 3.99915 9.05998Z" fill="currentColor"></path>
  </symbol>

  <symbol id="code" width="20" height="20" viewBox="0 0 20 20" fill="none">
    <path fill-rule="evenodd" clip-rule="evenodd" d="M12.4799 2.926C12.5265 2.7324 12.4944 2.52817 12.3905 2.35827C12.2866 2.18836 12.1195 2.06668 11.9259 2.02C11.7322 1.97333 11.528 2.00547 11.3581 2.10936C11.1882 2.21326 11.0665 2.3804 11.0199 2.574L7.51985 17.074C7.47317 17.2676 7.50532 17.4718 7.60921 17.6417C7.71311 17.8116 7.88024 17.9333 8.07385 17.98C8.26746 18.0267 8.47168 17.9945 8.64159 17.8906C8.8115 17.7867 8.93317 17.6196 8.97985 17.426L12.4799 2.926ZM5.76285 5.204C5.61803 5.06771 5.425 4.99452 5.22623 5.00052C5.02745 5.00652 4.83919 5.09123 4.70285 5.236L0.702851 9.486C0.571925 9.62512 0.499023 9.80896 0.499023 10C0.499023 10.191 0.571925 10.3749 0.702851 10.514L4.70285 14.764C4.84016 14.9046 5.02718 14.9857 5.22368 14.9899C5.42017 14.994 5.61044 14.9208 5.75354 14.7861C5.89664 14.6514 5.98115 14.4659 5.98887 14.2695C5.9966 14.0731 5.92693 13.8815 5.79485 13.736L2.27985 10L5.79585 6.264C5.93214 6.11918 6.00533 5.92616 5.99933 5.72738C5.99333 5.5286 5.90763 5.34034 5.76285 5.204ZM14.2349 5.204C14.3797 5.06771 14.5727 4.99452 14.7715 5.00052C14.9703 5.00652 15.1585 5.09123 15.2949 5.236L19.2949 9.486C19.4258 9.62512 19.4987 9.80896 19.4987 10C19.4987 10.191 19.4258 10.3749 19.2949 10.514L15.2949 14.764C15.1575 14.9046 14.9705 14.9857 14.774 14.9899C14.5775 14.994 14.3873 14.9208 14.2442 14.7861C14.1011 14.6514 14.0166 14.4659 14.0088 14.2695C14.0011 14.0731 14.0708 13.8815 14.2029 13.736L17.7199 10L14.2039 6.264C14.0676 6.11918 13.9944 5.92616 14.0004 5.72738C14.0064 5.5286 14.0911 5.34034 14.2359 5.204H14.2349Z" fill="currentColor"></path>
  </symbol>

  <symbol id="block-quote" width="20" height="20" viewBox="0 0 20 20" fill="none">
    <path fill-rule="evenodd" clip-rule="evenodd" d="M3.5 2.75C3.5 2.55109 3.42098 2.36032 3.28033 2.21967C3.13968 2.07902 2.94891 2 2.75 2C2.55109 2 2.36032 2.07902 2.21967 2.21967C2.07902 2.36032 2 2.55109 2 2.75V17.25C2 17.4489 2.07902 17.6397 2.21967 17.7803C2.36032 17.921 2.55109 18 2.75 18C2.94891 18 3.13968 17.921 3.28033 17.7803C3.42098 17.6397 3.5 17.4489 3.5 17.25V2.75ZM6.75 3C6.55109 3 6.36032 3.07902 6.21967 3.21967C6.07902 3.36032 6 3.55109 6 3.75C6 3.94891 6.07902 4.13968 6.21967 4.28033C6.36032 4.42098 6.55109 4.5 6.75 4.5H15.25C15.4489 4.5 15.6397 4.42098 15.7803 4.28033C15.921 4.13968 16 3.94891 16 3.75C16 3.55109 15.921 3.36032 15.7803 3.21967C15.6397 3.07902 15.4489 3 15.25 3H6.75ZM6 10.25C6 10.0511 6.07902 9.86032 6.21967 9.71967C6.36032 9.57902 6.55109 9.5 6.75 9.5H17.25C17.4489 9.5 17.6397 9.57902 17.7803 9.71967C17.921 9.86032 18 10.0511 18 10.25C18 10.4489 17.921 10.6397 17.7803 10.7803C17.6397 10.921 17.4489 11 17.25 11H6.75C6.55109 11 6.36032 10.921 6.21967 10.7803C6.07902 10.6397 6 10.4489 6 10.25ZM6.75 15.5C6.55109 15.5 6.36032 15.579 6.21967 15.7197C6.07902 15.8603 6 16.0511 6 16.25C6 16.4489 6.07902 16.6397 6.21967 16.7803C6.36032 16.921 6.55109 17 6.75 17H14.25C14.4489 17 14.6397 16.921 14.7803 16.7803C14.921 16.6397 15 16.4489 15 16.25C15 16.0511 14.921 15.8603 14.7803 15.7197C14.6397 15.579 14.4489 15.5 14.25 15.5H6.75Z" fill="currentColor"></path>
  </symbol>

  <symbol id="settings" width="20" height="20" viewBox="0 0 20 20" fill="none">
    <path fill-rule="evenodd" clip-rule="evenodd" d="M13.5 3.24999C13.2348 3.24999 12.9804 3.35534 12.7929 3.54288C12.6054 3.73042 12.5 3.98477 12.5 4.24999C12.5 4.5152 12.6054 4.76956 12.7929 4.95709C12.9804 5.14463 13.2348 5.24999 13.5 5.24999C13.7652 5.24999 14.0196 5.14463 14.2071 4.95709C14.3946 4.76956 14.5 4.5152 14.5 4.24999C14.5 3.98477 14.3946 3.73042 14.2071 3.54288C14.0196 3.35534 13.7652 3.24999 13.5 3.24999ZM11.114 3.49999C11.2736 2.99215 11.591 2.54846 12.0201 2.23348C12.4492 1.9185 12.9677 1.74866 13.5 1.74866C14.0323 1.74866 14.5508 1.9185 14.9799 2.23348C15.409 2.54846 15.7264 2.99215 15.886 3.49999H17.75C17.9489 3.49999 18.1397 3.579 18.2803 3.71966C18.421 3.86031 18.5 4.05107 18.5 4.24999C18.5 4.4489 18.421 4.63967 18.2803 4.78032C18.1397 4.92097 17.9489 4.99999 17.75 4.99999H15.886C15.7262 5.50745 15.4087 5.95073 14.9797 6.2654C14.5507 6.58006 14.0325 6.74973 13.5005 6.74973C12.9685 6.74973 12.4503 6.58006 12.0213 6.2654C11.5923 5.95073 11.2748 5.50745 11.115 4.99999H2.25C2.05109 4.99999 1.86032 4.92097 1.71967 4.78032C1.57902 4.63967 1.5 4.4489 1.5 4.24999C1.5 4.05107 1.57902 3.86031 1.71967 3.71966C1.86032 3.579 2.05109 3.49999 2.25 3.49999H11.114ZM4.114 9.24999C4.27356 8.74215 4.591 8.29846 5.02012 7.98348C5.44925 7.6685 5.96768 7.49866 6.5 7.49866C7.03232 7.49866 7.55075 7.6685 7.97988 7.98348C8.409 8.29846 8.72644 8.74215 8.886 9.24999H17.75C17.9489 9.24999 18.1397 9.32901 18.2803 9.46966C18.421 9.61031 18.5 9.80107 18.5 9.99999C18.5 10.1989 18.421 10.3897 18.2803 10.5303C18.1397 10.671 17.9489 10.75 17.75 10.75H8.886C8.72644 11.2578 8.409 11.7015 7.97988 12.0165C7.55075 12.3315 7.03232 12.5013 6.5 12.5013C5.96768 12.5013 5.44925 12.3315 5.02012 12.0165C4.591 11.7015 4.27356 11.2578 4.114 10.75H2.25C2.05109 10.75 1.86032 10.671 1.71967 10.5303C1.57902 10.3897 1.5 10.1989 1.5 9.99999C1.5 9.80107 1.57902 9.61031 1.71967 9.46966C1.86032 9.32901 2.05109 9.24999 2.25 9.24999H4.114ZM6.5 8.99999C6.23478 8.99999 5.98043 9.10534 5.79289 9.29288C5.60536 9.48042 5.5 9.73477 5.5 9.99999C5.5 10.2652 5.60536 10.5196 5.79289 10.7071C5.98043 10.8946 6.23478 11 6.5 11C6.76522 11 7.01957 10.8946 7.20711 10.7071C7.39464 10.5196 7.5 10.2652 7.5 9.99999C7.5 9.73477 7.39464 9.48042 7.20711 9.29288C7.01957 9.10534 6.76522 8.99999 6.5 8.99999ZM12.5 14.75C12.2348 14.75 11.9804 14.8553 11.7929 15.0429C11.6054 15.2304 11.5 15.4848 11.5 15.75C11.5 16.0152 11.6054 16.2696 11.7929 16.4571C11.9804 16.6446 12.2348 16.75 12.5 16.75C12.7652 16.75 13.0196 16.6446 13.2071 16.4571C13.3946 16.2696 13.5 16.0152 13.5 15.75C13.5 15.4848 13.3946 15.2304 13.2071 15.0429C13.0196 14.8553 12.7652 14.75 12.5 14.75ZM10.114 15C10.2736 14.4921 10.591 14.0485 11.0201 13.7335C11.4492 13.4185 11.9677 13.2487 12.5 13.2487C13.0323 13.2487 13.5508 13.4185 13.9799 13.7335C14.409 14.0485 14.7264 14.4921 14.886 15H17.75C17.9489 15 18.1397 15.079 18.2803 15.2197C18.421 15.3603 18.5 15.5511 18.5 15.75C18.5 15.9489 18.421 16.1397 18.2803 16.2803C18.1397 16.421 17.9489 16.5 17.75 16.5H14.886C14.7262 17.0075 14.4087 17.4507 13.9797 17.7654C13.5507 18.0801 13.0325 18.2497 12.5005 18.2497C11.9685 18.2497 11.4503 18.0801 11.0213 17.7654C10.5923 17.4507 10.2748 17.0075 10.115 16.5H2.25C2.05109 16.5 1.86032 16.421 1.71967 16.2803C1.57902 16.1397 1.5 15.9489 1.5 15.75C1.5 15.5511 1.57902 15.3603 1.71967 15.2197C1.86032 15.079 2.05109 15 2.25 15H10.114Z" fill="currentColor"></path>
  </symbol>

  <symbol id="bold" width="20" height="20" viewBox="0 0 20 20" fill="none">
    <path fill-rule="evenodd" clip-rule="evenodd" d="M4 2.75C4 2.55109 4.07902 2.36032 4.21967 2.21967C4.36032 2.07902 4.55109 2 4.75 2H11.093C12.0498 2.00023 12.9733 2.35148 13.6884 2.98717C14.4036 3.62285 14.8606 4.4988 14.973 5.449C14.9936 5.57828 15.0026 5.70912 15 5.84L15.001 5.907C15.0017 6.51135 14.8619 7.10758 14.5927 7.64868C14.3236 8.18978 13.9324 8.66094 13.45 9.025C14.4716 9.39681 15.3297 10.1165 15.8737 11.0578C16.4177 11.9991 16.6129 13.1019 16.425 14.1728C16.237 15.2436 15.6781 16.2141 14.8461 16.9139C14.0141 17.6137 12.9622 17.9983 11.875 18H4.75C4.55109 18 4.36032 17.921 4.21967 17.7803C4.07902 17.6397 4 17.4489 4 17.25V9.5C3.99988 9.42615 4.01066 9.35269 4.032 9.282C4.01076 9.21163 3.99998 9.13851 4 9.065V2.75ZM6.5 8.315H10.093C10.3763 8.315 10.6569 8.25919 10.9186 8.15077C11.1804 8.04235 11.4182 7.88343 11.6186 7.68308C11.8189 7.48274 11.9778 7.2449 12.0863 6.98314C12.1947 6.72138 12.2505 6.44083 12.2505 6.1575C12.2505 5.87417 12.1947 5.59362 12.0863 5.33186C11.9778 5.0701 11.8189 4.83226 11.6186 4.63192C11.4182 4.43157 11.1804 4.27265 10.9186 4.16423C10.6569 4.05581 10.3763 4 10.093 4H6.5V8.315ZM10.75 10.25H6.5V15.75H10.75C11.4793 15.75 12.1788 15.4603 12.6945 14.9445C13.2103 14.4288 13.5 13.7293 13.5 13C13.5 12.2707 13.2103 11.5712 12.6945 11.0555C12.1788 10.5397 11.4793 10.25 10.75 10.25Z" fill="currentColor"></path>
  </symbol>

  <symbol id="clock" width="20" height="20" viewBox="0 0 20 20" fill="none">
    <path fill-rule="evenodd" clip-rule="evenodd" d="M2.5 10C2.5 8.01088 3.29018 6.10322 4.6967 4.6967C6.10322 3.29018 8.01088 2.5 10 2.5C11.9891 2.5 13.8968 3.29018 15.3033 4.6967C16.7098 6.10322 17.5 8.01088 17.5 10C17.5 11.9891 16.7098 13.8968 15.3033 15.3033C13.8968 16.7098 11.9891 17.5 10 17.5C8.01088 17.5 6.10322 16.7098 4.6967 15.3033C3.29018 13.8968 2.5 11.9891 2.5 10ZM10 1C7.61305 1 5.32387 1.94821 3.63604 3.63604C1.94821 5.32387 1 7.61305 1 10C1 12.3869 1.94821 14.6761 3.63604 16.364C5.32387 18.0518 7.61305 19 10 19C12.3869 19 14.6761 18.0518 16.364 16.364C18.0518 14.6761 19 12.3869 19 10C19 7.61305 18.0518 5.32387 16.364 3.63604C14.6761 1.94821 12.3869 1 10 1ZM10.75 5.75C10.75 5.55109 10.671 5.36032 10.5303 5.21967C10.3897 5.07902 10.1989 5 10 5C9.80109 5 9.61032 5.07902 9.46967 5.21967C9.32902 5.36032 9.25 5.55109 9.25 5.75V11.25H13.75C13.9489 11.25 14.1397 11.171 14.2803 11.0303C14.421 10.8897 14.5 10.6989 14.5 10.5C14.5 10.3011 14.421 10.1103 14.2803 9.96967C14.1397 9.82902 13.9489 9.75 13.75 9.75H10.75V5.75Z" fill="currentColor"></path>
  </symbol>

  <symbol id="bookmark" width="20" height="20" viewBox="0 0 20 20" fill="none">
    <path fill-rule="evenodd" clip-rule="evenodd" d="M4.25 4.25C4.25 3.52065 4.53973 2.82118 5.05546 2.30546C5.57118 1.78973 6.27065 1.5 7 1.5H13C13.7293 1.5 14.4288 1.78973 14.9445 2.30546C15.4603 2.82118 15.75 3.52065 15.75 4.25V17.043C15.75 18.157 14.404 18.714 13.616 17.927L10 14.31L6.384 17.926C5.596 18.713 4.25 18.156 4.25 17.042V4.25ZM7 3C6.31 3 5.75 3.56 5.75 4.25V16.44L9.399 12.79C9.5584 12.6306 9.77459 12.5411 10 12.5411C10.2254 12.5411 10.4416 12.6306 10.601 12.79L14.25 16.44V4.25C14.25 3.56 13.69 3 13 3H7Z" fill="currentColor"></path>
  </symbol>

  <symbol id="reply" width="20" height="20" viewBox="0 0 20 20" fill="none">
    <path fill-rule="evenodd" clip-rule="evenodd" d="M10.457 2.56C10.5924 2.50237 10.7418 2.48587 10.8866 2.51254C11.0313 2.53921 11.165 2.60788 11.271 2.71L18.271 9.46C18.3436 9.52996 18.4013 9.61384 18.4408 9.70662C18.4802 9.7994 18.5005 9.89918 18.5005 10C18.5005 10.1008 18.4802 10.2006 18.4408 10.2934C18.4013 10.3862 18.3436 10.47 18.271 10.54L11.271 17.29C11.1651 17.3923 11.0314 17.4612 10.8866 17.488C10.7418 17.5148 10.5923 17.4984 10.4567 17.4408C10.3212 17.3832 10.2056 17.287 10.1244 17.1641C10.0432 17.0413 9.9999 16.8973 10 16.75V13.5H6C4.648 13.5 3.95 13.889 3.57 14.332C3.17 14.797 3 15.465 3 16.25C3 16.4489 2.92098 16.6397 2.78033 16.7803C2.63968 16.921 2.44891 17 2.25 17C2.05109 17 1.86032 16.921 1.71967 16.7803C1.57902 16.6397 1.5 16.4489 1.5 16.25V14C1.5 11.406 2.082 9.46 3.5 8.191C4.898 6.941 6.944 6.5 9.5 6.5H10V3.25C10 2.95 10.18 2.677 10.457 2.56ZM3.052 12.79C3.777 12.278 4.753 12 6 12H10.75C10.9489 12 11.1397 12.079 11.2803 12.2197C11.421 12.3603 11.5 12.5511 11.5 12.75V14.985L16.67 10L11.5 5.015V7.25C11.5 7.44891 11.421 7.63968 11.2803 7.78033C11.1397 7.92098 10.9489 8 10.75 8H9.5C7.056 8 5.477 8.434 4.5 9.309C3.716 10.011 3.21 11.097 3.052 12.79Z" fill="currentColor"></path>
  </symbol>

  <symbol id="thread" width="20" height="20" viewBox="0 0 20 20" fill="none">
    <path fill-rule="evenodd" clip-rule="evenodd" d="M10 3.00001C8.93157 3.00024 7.87736 3.24505 6.91816 3.71568C5.95896 4.1863 5.12023 4.87025 4.46621 5.71513C3.81219 6.56 3.36026 7.54338 3.14503 8.58991C2.9298 9.63644 2.95699 10.7184 3.22451 11.7527C3.49204 12.7871 3.9928 13.7466 4.68843 14.5575C5.38406 15.3685 6.2561 16.0094 7.23773 16.4313C8.21936 16.8531 9.28453 17.0447 10.3516 16.9913C11.4187 16.9378 12.4594 16.6408 13.394 16.123C13.559 16.0313 13.7526 16.0053 13.936 16.05L16.73 16.73L16.05 13.936C16.0052 13.7526 16.0313 13.5591 16.123 13.394C16.7138 12.3283 17.0162 11.1269 17.0002 9.90846C16.9843 8.69006 16.6506 7.49692 16.0321 6.44704C15.4137 5.39716 14.5318 4.52691 13.4739 3.92235C12.4159 3.31779 11.2185 2.99986 10 3.00001ZM1.5 10C1.50044 8.71526 1.79211 7.44732 2.35308 6.29151C2.91405 5.1357 3.72973 4.12209 4.7388 3.32687C5.74786 2.53166 6.92406 1.97553 8.17899 1.70028C9.43391 1.42504 10.7349 1.43785 11.9842 1.73775C13.2334 2.03765 14.3984 2.61684 15.3917 3.43177C16.3849 4.24671 17.1804 5.27618 17.7185 6.44282C18.2566 7.60945 18.5233 8.88288 18.4984 10.1674C18.4735 11.4519 18.1578 12.7141 17.575 13.859L18.479 17.573C18.5094 17.6981 18.5071 17.8288 18.4724 17.9528C18.4376 18.0767 18.3716 18.1896 18.2806 18.2806C18.1896 18.3716 18.0767 18.4376 17.9528 18.4724C17.8288 18.5072 17.6981 18.5094 17.573 18.479L13.859 17.575C12.5631 18.2353 11.1193 18.5521 9.66599 18.4949C8.21263 18.4378 6.79825 18.0086 5.55817 17.2486C4.31808 16.4885 3.29378 15.4229 2.58325 14.1538C1.87272 12.8847 1.49975 11.4545 1.5 10ZM6 8.25001C6 8.0511 6.07902 7.86033 6.21967 7.71968C6.36032 7.57903 6.55109 7.50001 6.75 7.50001H13.25C13.4489 7.50001 13.6397 7.57903 13.7803 7.71968C13.921 7.86033 14 8.0511 14 8.25001C14 8.44892 13.921 8.63969 13.7803 8.78034C13.6397 8.92099 13.4489 9.00001 13.25 9.00001H6.75C6.55109 9.00001 6.36032 8.92099 6.21967 8.78034C6.07902 8.63969 6 8.44892 6 8.25001ZM6.75 11C6.55109 11 6.36032 11.079 6.21967 11.2197C6.07902 11.3603 6 11.5511 6 11.75C6 11.9489 6.07902 12.1397 6.21967 12.2803C6.36032 12.421 6.55109 12.5 6.75 12.5H11.25C11.4489 12.5 11.6397 12.421 11.7803 12.2803C11.921 12.1397 12 11.9489 12 11.75C12 11.5511 11.921 11.3603 11.7803 11.2197C11.6397 11.079 11.4489 11 11.25 11H6.75Z" fill="currentColor"></path>
  </symbol>

  <symbol id="add-emoji" width="20" height="20" viewBox="0 0 20 20" fill="none">
    <path fill-rule="evenodd" clip-rule="evenodd" d="M15.5 1C15.6989 1 15.8896 1.07902 16.0303 1.21967C16.1709 1.36032 16.25 1.55109 16.25 1.75V3.75H18.25C18.4489 3.75 18.6396 3.82902 18.7803 3.96967C18.9209 4.11032 19 4.30109 19 4.5C19 4.69891 18.9209 4.88968 18.7803 5.03033C18.6396 5.17098 18.4489 5.25 18.25 5.25H16.25V7.25C16.25 7.44891 16.1709 7.63968 16.0303 7.78033C15.8896 7.92098 15.6989 8 15.5 8C15.3011 8 15.1103 7.92098 14.9696 7.78033C14.829 7.63968 14.75 7.44891 14.75 7.25V5.25H12.75C12.5511 5.25 12.3603 5.17098 12.2196 5.03033C12.079 4.88968 12 4.69891 12 4.5C12 4.30109 12.079 4.11032 12.2196 3.96967C12.3603 3.82902 12.5511 3.75 12.75 3.75H14.75V1.75C14.75 1.55109 14.829 1.36032 14.9696 1.21967C15.1103 1.07902 15.3011 1 15.5 1ZM2.49997 11C2.49994 10.0902 2.69089 9.19056 3.06048 8.35923C3.43007 7.5279 3.97006 6.78342 4.64552 6.17394C5.32098 5.56446 6.11686 5.10357 6.98167 4.82108C7.84649 4.53858 8.76097 4.44078 9.66597 4.534C9.86395 4.55416 10.0618 4.49484 10.2161 4.3691C10.3703 4.24335 10.4683 4.06148 10.4885 3.8635C10.5086 3.66552 10.4493 3.46763 10.3236 3.31339C10.1978 3.15914 10.0159 3.06116 9.81797 3.041C8.17447 2.87208 6.51899 3.21613 5.0789 4.02592C3.63881 4.8357 2.48476 6.07148 1.77526 7.56353C1.06575 9.05558 0.835598 10.7307 1.11641 12.3588C1.39722 13.9869 2.17522 15.4882 3.34355 16.6563C4.51188 17.8245 6.01322 18.6023 7.64138 18.8829C9.26953 19.1634 10.9446 18.9331 12.4366 18.2233C13.9285 17.5136 15.1641 16.3594 15.9737 14.9192C16.7833 13.479 17.1271 11.8235 16.958 10.18C16.9343 9.98502 16.8351 9.80709 16.6817 9.68447C16.5282 9.56184 16.3328 9.5043 16.1374 9.52421C15.942 9.54412 15.7622 9.63988 15.6367 9.79093C15.5111 9.94198 15.4498 10.1362 15.466 10.332C15.4887 10.5539 15.5001 10.7769 15.5 11C15.5 12.7239 14.8151 14.3772 13.5962 15.5962C12.3772 16.8152 10.7239 17.5 8.99997 17.5C7.27606 17.5 5.62276 16.8152 4.40377 15.5962C3.18479 14.3772 2.49997 12.7239 2.49997 11ZM6.74997 10.5C7.08149 10.5 7.39943 10.3683 7.63385 10.1339C7.86827 9.89946 7.99997 9.58152 7.99997 9.25C7.99997 8.91848 7.86827 8.60054 7.63385 8.36612C7.39943 8.1317 7.08149 8 6.74997 8C6.41845 8 6.1005 8.1317 5.86608 8.36612C5.63166 8.60054 5.49997 8.91848 5.49997 9.25C5.49997 9.58152 5.63166 9.89946 5.86608 10.1339C6.1005 10.3683 6.41845 10.5 6.74997 10.5ZM11.25 10.5C11.5815 10.5 11.8994 10.3683 12.1338 10.1339C12.3683 9.89946 12.5 9.58152 12.5 9.25C12.5 8.91848 12.3683 8.60054 12.1338 8.36612C11.8994 8.1317 11.5815 8 11.25 8C10.9184 8 10.6005 8.1317 10.3661 8.36612C10.1317 8.60054 9.99997 8.91848 9.99997 9.25C9.99997 9.58152 10.1317 9.89946 10.3661 10.1339C10.6005 10.3683 10.9184 10.5 11.25 10.5ZM8.99997 15C10.277 15 11.553 14.276 12.06 12.827C12.208 12.401 11.851 12 11.4 12H6.59997C6.14797 12 5.79197 12.4 5.93997 12.827C6.44797 14.276 7.72397 15 8.99997 15Z" fill="currentColor"></path>
  </symbol>

  <symbol id="hashtag-thin" width="20" height="20" viewBox="0 0 20 20" fill="none">
    <path fill-rule="evenodd" clip-rule="evenodd" d="M9.74 3.87801C9.75674 3.78083 9.75418 3.68131 9.73246 3.58512C9.71074 3.48893 9.67029 3.39796 9.61341 3.31741C9.55654 3.23685 9.48435 3.16829 9.40098 3.11563C9.31761 3.06297 9.22468 3.02725 9.1275 3.01051C9.03032 2.99377 8.9308 2.99633 8.83461 3.01805C8.73842 3.03977 8.64745 3.08022 8.5669 3.1371C8.48634 3.19397 8.41778 3.26616 8.36512 3.34953C8.31246 3.4329 8.27674 3.52583 8.26 3.62301L7.68 7.00001H3.75C3.55109 7.00001 3.36032 7.07903 3.21967 7.21968C3.07902 7.36033 3 7.5511 3 7.75001C3 7.94892 3.07902 8.13969 3.21967 8.28034C3.36032 8.42099 3.55109 8.50001 3.75 8.50001H7.42L6.472 14H2.75C2.55109 14 2.36032 14.079 2.21967 14.2197C2.07902 14.3603 2 14.5511 2 14.75C2 14.9489 2.07902 15.1397 2.21967 15.2803C2.36032 15.421 2.55109 15.5 2.75 15.5H6.213L5.761 18.123C5.73038 18.3176 5.77755 18.5164 5.89232 18.6765C6.00709 18.8367 6.18024 18.9452 6.37437 18.9787C6.56849 19.0122 6.768 18.9679 6.92979 18.8555C7.09157 18.7432 7.20264 18.5716 7.239 18.378L7.735 15.5H10.963L10.511 18.123C10.4804 18.3176 10.5275 18.5164 10.6423 18.6765C10.7571 18.8367 10.9302 18.9452 11.1244 18.9787C11.3185 19.0122 11.518 18.9679 11.6798 18.8555C11.8416 18.7432 11.9526 18.5716 11.989 18.378L12.485 15.5H16.25C16.4489 15.5 16.6397 15.421 16.7803 15.2803C16.921 15.1397 17 14.9489 17 14.75C17 14.5511 16.921 14.3603 16.7803 14.2197C16.6397 14.079 16.4489 14 16.25 14H12.744L13.692 8.50001H17.25C17.4489 8.50001 17.6397 8.42099 17.7803 8.28034C17.921 8.13969 18 7.94892 18 7.75001C18 7.5511 17.921 7.36033 17.7803 7.21968C17.6397 7.07903 17.4489 7.00001 17.25 7.00001H13.95L14.49 3.87801C14.5238 3.68175 14.4783 3.4801 14.3634 3.31741C14.2485 3.15472 14.0738 3.04433 13.8775 3.01051C13.6812 2.97669 13.4796 3.02223 13.3169 3.1371C13.1542 3.25196 13.0438 3.42675 13.01 3.62301L12.43 7.00001H9.2L9.738 3.87801H9.74ZM11.221 14L12.169 8.50001H8.942L7.994 14H11.222H11.221Z" fill="currentColor"></path>
  </symbol>

  <symbol id="slack-connect" width="20" height="20" viewBox="0 0 20 20" fill="none">
    <path fill-rule="evenodd" clip-rule="evenodd" d="M1 4.75C1 3.75544 1.39509 2.80161 2.09835 2.09835C2.80161 1.39509 3.75544 1 4.75 1H10.25C11.2446 1 12.1984 1.39509 12.9017 2.09835C13.6049 2.80161 14 3.75544 14 4.75V7.25H15.25C16.2446 7.25 17.1984 7.64509 17.9017 8.34835C18.6049 9.05161 19 10.0054 19 11V17.25C19 17.7141 18.8156 18.1592 18.4874 18.4874C18.1592 18.8156 17.7141 19 17.25 19H2.75C2.28587 19 1.84075 18.8156 1.51256 18.4874C1.18437 18.1592 1 17.7141 1 17.25V4.75ZM14 17.5V8.75H15.25C15.8467 8.75 16.419 8.98705 16.841 9.40901C17.2629 9.83097 17.5 10.4033 17.5 11V17.25C17.5 17.3163 17.4737 17.3799 17.4268 17.4268C17.3799 17.4737 17.3163 17.5 17.25 17.5H14ZM4.75 2.5C4.15326 2.5 3.58097 2.73705 3.15901 3.15901C2.73705 3.58097 2.5 4.15326 2.5 4.75V17.25C2.5 17.388 2.612 17.5 2.75 17.5H4.5V15.75C4.5 14.784 5.284 14 6.25 14H8.75C9.716 14 10.5 14.784 10.5 15.75V17.5H12.5V4.75C12.5 4.15326 12.2629 3.58097 11.841 3.15901C11.419 2.73705 10.8467 2.5 10.25 2.5H4.75ZM9 17.5V15.75C9 15.6837 8.97366 15.6201 8.92678 15.5732C8.87989 15.5263 8.8163 15.5 8.75 15.5H6.25C6.1837 15.5 6.12011 15.5263 6.07322 15.5732C6.02634 15.6201 6 15.6837 6 15.75V17.5H9ZM7 8.5C7 8.76522 6.89464 9.01957 6.70711 9.20711C6.51957 9.39464 6.26522 9.5 6 9.5C5.73478 9.5 5.48043 9.39464 5.29289 9.20711C5.10536 9.01957 5 8.76522 5 8.5C5 8.23478 5.10536 7.98043 5.29289 7.79289C5.48043 7.60536 5.73478 7.5 6 7.5C6.26522 7.5 6.51957 7.60536 6.70711 7.79289C6.89464 7.98043 7 8.23478 7 8.5ZM6 6.5C6.26522 6.5 6.51957 6.39464 6.70711 6.20711C6.89464 6.01957 7 5.76522 7 5.5C7 5.23478 6.89464 4.98043 6.70711 4.79289C6.51957 4.60536 6.26522 4.5 6 4.5C5.73478 4.5 5.48043 4.60536 5.29289 4.79289C5.10536 4.98043 5 5.23478 5 5.5C5 5.76522 5.10536 6.01957 5.29289 6.20711C5.48043 6.39464 5.73478 6.5 6 6.5ZM10 5.5C10 5.76522 9.89464 6.01957 9.70711 6.20711C9.51957 6.39464 9.26522 6.5 9 6.5C8.73478 6.5 8.48043 6.39464 8.29289 6.20711C8.10536 6.01957 8 5.76522 8 5.5C8 5.23478 8.10536 4.98043 8.29289 4.79289C8.48043 4.60536 8.73478 4.5 9 4.5C9.26522 4.5 9.51957 4.60536 9.70711 4.79289C9.89464 4.98043 10 5.23478 10 5.5ZM9 9.5C9.26522 9.5 9.51957 9.39464 9.70711 9.20711C9.89464 9.01957 10 8.76522 10 8.5C10 8.23478 9.89464 7.98043 9.70711 7.79289C9.51957 7.60536 9.26522 7.5 9 7.5C8.73478 7.5 8.48043 7.60536 8.29289 7.79289C8.10536 7.98043 8 8.23478 8 8.5C8 8.76522 8.10536 9.01957 8.29289 9.20711C8.48043 9.39464 8.73478 9.5 9 9.5ZM10 11.5C10 11.7652 9.89464 12.0196 9.70711 12.2071C9.51957 12.3946 9.26522 12.5 9 12.5C8.73478 12.5 8.48043 12.3946 8.29289 12.2071C8.10536 12.0196 8 11.7652 8 11.5C8 11.2348 8.10536 10.9804 8.29289 10.7929C8.48043 10.6054 8.73478 10.5 9 10.5C9.26522 10.5 9.51957 10.6054 9.70711 10.7929C9.89464 10.9804 10 11.2348 10 11.5ZM6 12.5C6.26522 12.5 6.51957 12.3946 6.70711 12.2071C6.89464 12.0196 7 11.7652 7 11.5C7 11.2348 6.89464 10.9804 6.70711 10.7929C6.51957 10.6054 6.26522 10.5 6 10.5C5.73478 10.5 5.48043 10.6054 5.29289 10.7929C5.10536 10.9804 5 11.2348 5 11.5C5 11.7652 5.10536 12.0196 5.29289 12.2071C5.48043 12.3946 5.73478 12.5 6 12.5Z" fill="currentColor"></path>
  </symbol>

  <symbol id="help" width="20" height="20" viewBox="0 0 20 20" fill="none">
    <path fill-rule="evenodd" clip-rule="evenodd" d="M10 2.5C8.01088 2.5 6.10322 3.29018 4.6967 4.6967C3.29018 6.10322 2.5 8.01088 2.5 10C2.5 11.9891 3.29018 13.8968 4.6967 15.3033C6.10322 16.7098 8.01088 17.5 10 17.5C11.9891 17.5 13.8968 16.7098 15.3033 15.3033C16.7098 13.8968 17.5 11.9891 17.5 10C17.5 8.01088 16.7098 6.10322 15.3033 4.6967C13.8968 3.29018 11.9891 2.5 10 2.5ZM1 10C1 7.61305 1.94821 5.32387 3.63604 3.63604C5.32387 1.94821 7.61305 1 10 1C12.3869 1 14.6761 1.94821 16.364 3.63604C18.0518 5.32387 19 7.61305 19 10C19 12.3869 18.0518 14.6761 16.364 16.364C14.6761 18.0518 12.3869 19 10 19C7.61305 19 5.32387 18.0518 3.63604 16.364C1.94821 14.6761 1 12.3869 1 10ZM8.883 7.352C8.653 7.547 8.5 7.836 8.5 8.25C8.5 8.44891 8.42098 8.63968 8.28033 8.78033C8.13968 8.92098 7.94891 9 7.75 9C7.55109 9 7.36032 8.92098 7.21967 8.78033C7.07902 8.63968 7 8.44891 7 8.25C7 7.414 7.333 6.703 7.91 6.21C8.473 5.73 9.22 5.5 10 5.5C10.776 5.5 11.577 5.727 12.2 6.229C12.842 6.746 13.25 7.523 13.25 8.5C13.25 9.327 12.986 10.015 12.443 10.501C11.97 10.924 11.363 11.124 10.75 11.204V12H9.25V11C9.25 10.291 9.816 9.789 10.43 9.731C10.937 9.683 11.257 9.551 11.443 9.384C11.605 9.239 11.75 8.994 11.75 8.5C11.75 7.977 11.547 7.63 11.258 7.396C10.951 7.148 10.502 7 10 7C9.503 7 9.124 7.146 8.883 7.352ZM10 15C10.2652 15 10.5196 14.8946 10.7071 14.7071C10.8946 14.5196 11 14.2652 11 14C11 13.7348 10.8946 13.4804 10.7071 13.2929C10.5196 13.1054 10.2652 13 10 13C9.73478 13 9.48043 13.1054 9.29289 13.2929C9.10536 13.4804 9 13.7348 9 14C9 14.2652 9.10536 14.5196 9.29289 14.7071C9.48043 14.8946 9.73478 15 10 15Z" fill="currentColor"></path>
  </symbol>

  <symbol id="strikethrough" width="20" height="20" viewBox="0 0 20 20" fill="none">
    <path fill-rule="evenodd" clip-rule="evenodd" d="M11.721 3.84003C10.811 3.50603 9.693 3.48003 8.686 3.72603C7.176 4.13303 6.307 5.58703 6.522 6.87603C6.718 8.05103 7.939 9.50003 11.5 9.50003C11.509 9.5002 11.518 9.50054 11.527 9.50103H17.25C17.4489 9.50103 17.6397 9.58005 17.7803 9.7207C17.921 9.86135 18 10.0521 18 10.251C18 10.4499 17.921 10.6407 17.7803 10.7814C17.6397 10.922 17.4489 11.001 17.25 11.001H2.75C2.55109 11.001 2.36032 10.922 2.21967 10.7814C2.07902 10.6407 2 10.4499 2 10.251C2 10.0521 2.07902 9.86135 2.21967 9.7207C2.36032 9.58005 2.55109 9.50103 2.75 9.50103H6.41C5.65 8.85203 5.194 8.03303 5.042 7.12403C4.695 5.04003 6.075 2.87103 8.307 2.27603L8.314 2.27403L8.321 2.27203C9.573 1.96503 11.001 1.98003 12.236 2.43203C13.488 2.88903 14.573 3.81303 14.974 5.30603C15.0206 5.49633 14.9908 5.6973 14.8912 5.86596C14.7915 6.03462 14.6297 6.15757 14.4406 6.20852C14.2514 6.25948 14.0498 6.23438 13.8789 6.13861C13.708 6.04283 13.5813 5.88398 13.526 5.69603C13.276 4.77103 12.616 4.16803 11.721 3.84003ZM14.689 12.954C14.6527 12.86 14.5979 12.7742 14.5277 12.7018C14.4576 12.6294 14.3736 12.5719 14.2807 12.5327C14.1878 12.4936 14.088 12.4735 13.9872 12.4738C13.8864 12.4741 13.7867 12.4946 13.694 12.5343C13.6013 12.574 13.5176 12.6319 13.4478 12.7047C13.3781 12.7775 13.3237 12.8635 13.2879 12.9578C13.2522 13.052 13.2358 13.1525 13.2398 13.2533C13.2437 13.354 13.268 13.4529 13.311 13.544C13.584 14.184 13.497 14.749 13.181 15.218C12.848 15.71 12.223 16.143 11.361 16.355C10.372 16.598 9.37 16.52 8.332 16.231C7.402 15.971 6.719 15.296 6.474 14.386C6.4187 14.1981 6.29205 14.0392 6.12114 13.9435C5.95023 13.8477 5.74862 13.8226 5.55945 13.8735C5.37027 13.9245 5.20854 14.0474 5.10885 14.2161C5.00916 14.3848 4.97942 14.5857 5.026 14.776C5.414 16.217 6.509 17.279 7.929 17.676C9.142 18.014 10.415 18.132 11.719 17.811C12.859 17.531 13.839 16.922 14.423 16.058C15.023 15.17 15.166 14.066 14.689 12.954Z" fill="currentColor"></path>
  </symbol>
  <symbol id="add-note" viewBox="0 0 20 20" fill="none">
    <path fill-rule="evenodd" clip-rule="evenodd" d="M4 1C4.19891 1 4.38968 1.07902 4.53033 1.21967C4.67098 1.36032 4.75 1.55109 4.75 1.75V3.25H6.25C6.44891 3.25 6.63968 3.32902 6.78033 3.46967C6.92098 3.61032 7 3.80109 7 4C7 4.19891 6.92098 4.38968 6.78033 4.53033C6.63968 4.67098 6.44891 4.75 6.25 4.75H4.75V6.25C4.75 6.44891 4.67098 6.63968 4.53033 6.78033C4.38968 6.92098 4.19891 7 4 7C3.80109 7 3.61032 6.92098 3.46967 6.78033C3.32902 6.63968 3.25 6.44891 3.25 6.25V4.75H1.75C1.55109 4.75 1.36032 4.67098 1.21967 4.53033C1.07902 4.38968 1 4.19891 1 4C1 3.80109 1.07902 3.61032 1.21967 3.46967C1.36032 3.32902 1.55109 3.25 1.75 3.25H3.25V1.75C3.25 1.55109 3.32902 1.36032 3.46967 1.21967C3.61032 1.07902 3.80109 1 4 1ZM9.25 1.5C9.05109 1.5 8.86032 1.57902 8.71967 1.71967C8.57902 1.86032 8.5 2.05109 8.5 2.25C8.5 2.44891 8.57902 2.63968 8.71967 2.78033C8.86032 2.92098 9.05109 3 9.25 3H14.75C15.3467 3 15.919 3.23705 16.341 3.65901C16.7629 4.08097 17 4.65326 17 5.25V10.75H12.25C11.8522 10.75 11.4706 10.908 11.1893 11.1893C10.908 11.4706 10.75 11.8522 10.75 12.25V17H5.25C4.65326 17 4.08097 16.7629 3.65901 16.341C3.23705 15.919 3 15.3467 3 14.75V9.25C3 9.05109 2.92098 8.86032 2.78033 8.71967C2.63968 8.57902 2.44891 8.5 2.25 8.5C2.05109 8.5 1.86032 8.57902 1.71967 8.71967C1.57902 8.86032 1.5 9.05109 1.5 9.25V14.75C1.5 15.2425 1.597 15.7301 1.78545 16.1851C1.97391 16.64 2.25013 17.0534 2.59835 17.4017C2.94657 17.7499 3.35997 18.0261 3.81494 18.2145C4.26991 18.403 4.75754 18.5 5.25 18.5H10.986C11.715 18.5 12.414 18.21 12.93 17.695L17.695 12.93C18.2104 12.4143 18.5 11.7151 18.5 10.986V5.25C18.5 4.75754 18.403 4.26991 18.2145 3.81494C18.0261 3.35997 17.7499 2.94657 17.4017 2.59835C17.0534 2.25013 16.64 1.97391 16.1851 1.78545C15.7301 1.597 15.2425 1.5 14.75 1.5H9.25ZM12.25 16.253L16.253 12.25H12.25V16.253Z" fill="currentColor"></path>
  </symbol>
  <symbol id="star" viewBox="0 0 20 20" fill="none">
    
            <path
                d="M64.395,1.969l15.713,36.79l39.853,3.575c1.759,0.152,3.06,1.701,2.907,3.459c-0.073,0.857-0.479,1.604-1.079,2.129 l0.002,0.001L91.641,74.25l8.917,39.021c0.395,1.723-0.683,3.439-2.406,3.834c-0.883,0.203-1.763,0.018-2.466-0.441L61.441,96.191 L27.087,116.73c-1.516,0.906-3.48,0.412-4.387-1.104c-0.441-0.736-0.55-1.58-0.373-2.355h-0.003l8.918-39.021L1.092,47.924 c-1.329-1.163-1.463-3.183-0.301-4.512c0.591-0.676,1.405-1.042,2.235-1.087l39.748-3.566l15.721-36.81 c0.692-1.627,2.572-2.384,4.199-1.692C63.494,0.597,64.084,1.225,64.395,1.969L64.395,1.969z M74.967,43.023L61.441,11.351 L47.914,43.023l-0.004-0.001c-0.448,1.051-1.447,1.826-2.665,1.932l-34.306,3.078l25.819,22.545c0.949,0.74,1.438,1.988,1.152,3.24 l-7.674,33.578l29.506-17.641c0.986-0.617,2.274-0.672,3.342-0.033l29.563,17.674l-7.673-33.578l0.003-0.002 c-0.252-1.109,0.096-2.318,1.012-3.119l25.955-22.664L77.815,44.97C76.607,44.932,75.472,44.208,74.967,43.023L74.967,43.023z" />
      
  </symbol>

  <symbol id="chevron-down" width="20" height="20" viewBox="0 0 20 20" fill="none">
    <path fill-rule="evenodd" clip-rule="evenodd" d="M5.71983 7.47C5.86045 7.32955 6.05108 7.25066 6.24983 7.25066C6.44858 7.25066 6.6392 7.32955 6.77983 7.47L9.99983 10.69L13.2198 7.47C13.2885 7.39631 13.3713 7.33721 13.4633 7.29622C13.5553 7.25523 13.6546 7.23319 13.7553 7.23141C13.856 7.22963 13.956 7.24816 14.0494 7.28588C14.1428 7.3236 14.2276 7.37974 14.2989 7.45096C14.3701 7.52218 14.4262 7.60701 14.464 7.7004C14.5017 7.79379 14.5202 7.89382 14.5184 7.99452C14.5166 8.09523 14.4946 8.19454 14.4536 8.28654C14.4126 8.37854 14.3535 8.46134 14.2798 8.53L10.5298 12.28C10.3892 12.4205 10.1986 12.4993 9.99983 12.4993C9.80108 12.4993 9.61045 12.4205 9.46983 12.28L5.71983 8.53C5.57938 8.38938 5.50049 8.19875 5.50049 8C5.50049 7.80125 5.57938 7.61063 5.71983 7.47Z" fill="currentColor"></path>
  </symbol>

  <symbol id="hashtag-thick" width="20" height="20" viewBox="0 0 20 20" fill="none">
    <path fill-rule="evenodd" clip-rule="evenodd" d="M9.984 4.176C10.0227 3.91848 9.95947 3.656 9.80768 3.4444C9.65589 3.23279 9.42754 3.08875 9.17119 3.0429C8.91484 2.99705 8.65072 3.05301 8.43499 3.19888C8.21925 3.34475 8.06894 3.56902 8.016 3.824L7.448 7H4C3.73478 7 3.48043 7.10535 3.29289 7.29289C3.10536 7.48043 3 7.73478 3 8C3 8.26521 3.10536 8.51957 3.29289 8.7071C3.48043 8.89464 3.73478 9 4 9H7.091L6.288 13.5H3C2.73478 13.5 2.48043 13.6054 2.29289 13.7929C2.10536 13.9804 2 14.2348 2 14.5C2 14.7652 2.10536 15.0196 2.29289 15.2071C2.48043 15.3946 2.73478 15.5 3 15.5H5.93L5.516 17.824C5.47727 18.0815 5.54053 18.344 5.69232 18.5556C5.84411 18.7672 6.07246 18.9112 6.32881 18.9571C6.58516 19.0029 6.84929 18.947 7.06502 18.8011C7.28075 18.6552 7.43106 18.431 7.484 18.176L7.962 15.5H10.681L10.266 17.824C10.2388 17.9549 10.2382 18.0898 10.2641 18.221C10.2899 18.3521 10.3419 18.4767 10.4167 18.5874C10.4916 18.6981 10.5879 18.7927 10.6999 18.8656C10.812 18.9385 10.9375 18.9881 11.0691 19.0117C11.2006 19.0352 11.3356 19.0321 11.4659 19.0026C11.5963 18.9731 11.7194 18.9177 11.828 18.8398C11.9366 18.7619 12.0285 18.663 12.0982 18.549C12.168 18.435 12.2141 18.3082 12.234 18.176L12.712 15.5H16C16.2652 15.5 16.5196 15.3946 16.7071 15.2071C16.8946 15.0196 17 14.7652 17 14.5C17 14.2348 16.8946 13.9804 16.7071 13.7929C16.5196 13.6054 16.2652 13.5 16 13.5H13.07L13.873 9H17C17.2652 9 17.5196 8.89464 17.7071 8.7071C17.8946 8.51957 18 8.26521 18 8C18 7.73478 17.8946 7.48043 17.7071 7.29289C17.5196 7.10535 17.2652 7 17 7H14.23L14.734 4.176C14.7612 4.04513 14.7618 3.91015 14.7359 3.77903C14.7101 3.6479 14.6581 3.5233 14.5833 3.41258C14.5084 3.30186 14.4121 3.20727 14.3001 3.13441C14.188 3.06154 14.0625 3.01187 13.9309 2.98834C13.7994 2.96481 13.6644 2.96789 13.5341 2.9974C13.4037 3.02691 13.2806 3.08225 13.172 3.16016C13.0634 3.23806 12.9715 3.33695 12.9018 3.45097C12.832 3.56499 12.7859 3.69183 12.766 3.824L12.198 7H9.48L9.984 4.176ZM11.038 13.5L11.84 9H9.123L8.319 13.5H11.038Z" fill="currentColor"></path>
  </symbol>

  <symbol id="link" width="20" height="20" viewBox="0 0 20 20" fill="none">
    <path fill-rule="evenodd" clip-rule="evenodd" d="M12.3058 3.755C12.8215 3.2393 13.521 2.94959 14.2503 2.94959C14.9796 2.94959 15.6791 3.2393 16.1948 3.755L16.2448 3.805C16.5003 4.06038 16.703 4.36359 16.8412 4.69732C16.9795 5.03105 17.0507 5.38876 17.0507 5.75C17.0507 6.11125 16.9795 6.46895 16.8412 6.80268C16.703 7.13641 16.5003 7.43962 16.2448 7.695L13.0648 10.875C12.8015 11.1382 12.4876 11.3451 12.142 11.4834C11.7964 11.6217 11.4263 11.6883 11.0542 11.6794C10.6821 11.6704 10.3157 11.586 9.97715 11.4312C9.63862 11.2764 9.33504 11.0546 9.08479 10.779L9.05479 10.745C8.98847 10.6721 8.90845 10.613 8.81929 10.5711C8.73012 10.5291 8.63357 10.5051 8.53514 10.5005C8.33635 10.4911 8.14198 10.5611 7.99479 10.695C7.84759 10.8289 7.75963 11.0159 7.75025 11.2146C7.74088 11.4134 7.81085 11.6078 7.94479 11.755L7.97479 11.788C8.36162 12.2136 8.83082 12.5563 9.35397 12.7953C9.87712 13.0342 10.4433 13.1646 11.0183 13.1783C11.5933 13.192 12.1651 13.0889 12.6991 12.8752C13.233 12.6615 13.7181 12.3417 14.1248 11.935L17.3048 8.755C18.1017 7.95799 18.5494 6.87707 18.5494 5.75C18.5494 4.62293 18.1017 3.54201 17.3048 2.745L17.2548 2.695C16.4578 1.8981 15.3769 1.45041 14.2498 1.45041C13.1227 1.45041 12.0418 1.8981 11.2448 2.695L9.46979 4.47C9.3961 4.53866 9.337 4.62146 9.29601 4.71346C9.25501 4.80546 9.23297 4.90478 9.2312 5.00548C9.22942 5.10618 9.24794 5.20621 9.28567 5.2996C9.32339 5.39299 9.37953 5.47782 9.45075 5.54904C9.52197 5.62026 9.6068 5.6764 9.70019 5.71412C9.79358 5.75185 9.89361 5.77037 9.99431 5.76859C10.095 5.76682 10.1943 5.74477 10.2863 5.70378C10.3783 5.66279 10.4611 5.60369 10.5298 5.53L12.3058 3.755ZM7.69479 16.245C7.43941 16.5005 7.1362 16.7032 6.80247 16.8415C6.46874 16.9797 6.11103 17.0509 5.74979 17.0509C5.38854 17.0509 5.03084 16.9797 4.69711 16.8415C4.36338 16.7032 4.06017 16.5005 3.80479 16.245L3.75479 16.195C3.49929 15.9396 3.29661 15.6364 3.15833 15.3027C3.02005 14.9689 2.94887 14.6112 2.94887 14.25C2.94887 13.8888 3.02005 13.5311 3.15833 13.1973C3.29661 12.8636 3.49929 12.5604 3.75479 12.305L6.93479 9.125C7.19803 8.86184 7.51196 8.65485 7.85756 8.51659C8.20316 8.37833 8.57323 8.31167 8.94535 8.32064C9.31747 8.32962 9.68389 8.41404 10.0224 8.56881C10.361 8.72357 10.6645 8.94545 10.9148 9.221L10.9448 9.254C11.0786 9.4012 11.2654 9.48921 11.4641 9.49868C11.6628 9.50815 11.8571 9.4383 12.0043 9.3045C12.1515 9.1707 12.2395 8.9839 12.249 8.78521C12.2584 8.58652 12.1886 8.3922 12.0548 8.245L12.0248 8.211C11.6379 7.78545 11.1686 7.44285 10.6454 7.20396C10.1223 6.96507 9.55603 6.83486 8.98105 6.82121C8.40607 6.80756 7.8343 6.91076 7.30036 7.12455C6.76643 7.33835 6.28145 7.65829 5.87479 8.065L2.69479 11.245C1.89788 12.042 1.4502 13.1229 1.4502 14.25C1.4502 15.3771 1.89788 16.458 2.69479 17.255L2.74479 17.305C3.5418 18.1019 4.62272 18.5496 5.74979 18.5496C6.87686 18.5496 7.95778 18.1019 8.75479 17.305L10.5298 15.53C10.6623 15.3878 10.7344 15.1998 10.731 15.0055C10.7275 14.8112 10.6488 14.6258 10.5114 14.4884C10.374 14.351 10.1886 14.2723 9.99431 14.2688C9.80001 14.2654 9.61196 14.3375 9.46979 14.47L7.69479 16.245Z" fill="currentColor"></path>
  </symbol>

  <symbol id="search" width="20" height="20" viewBox="0 0 20 20" fill="none">
    <path fill-rule="evenodd" clip-rule="evenodd" d="M9 2.99999C7.4087 2.99999 5.88258 3.63213 4.75736 4.75735C3.63214 5.88257 3 7.40869 3 8.99999C3 10.5913 3.63214 12.1174 4.75736 13.2426C5.88258 14.3678 7.4087 15 9 15C10.5913 15 12.1174 14.3678 13.2426 13.2426C14.3679 12.1174 15 10.5913 15 8.99999C15 7.40869 14.3679 5.88257 13.2426 4.75735C12.1174 3.63213 10.5913 2.99999 9 2.99999ZM1.5 8.99999C1.49993 7.79835 1.78859 6.61429 2.34167 5.5475C2.89475 4.48071 3.69606 3.56244 4.67813 2.86999C5.66019 2.17755 6.79426 1.73121 7.98484 1.56856C9.17542 1.40592 10.3877 1.53172 11.5195 1.93539C12.6513 2.33905 13.6695 3.00876 14.4885 3.88811C15.3074 4.76746 15.9031 5.83072 16.2253 6.98834C16.5475 8.14597 16.5869 9.36408 16.3401 10.5401C16.0933 11.7161 15.5675 12.8156 14.807 13.746L18.28 17.22C18.3537 17.2887 18.4128 17.3715 18.4538 17.4635C18.4948 17.5555 18.5168 17.6548 18.5186 17.7555C18.5204 17.8562 18.5018 17.9562 18.4641 18.0496C18.4264 18.143 18.3703 18.2278 18.299 18.299C18.2278 18.3702 18.143 18.4264 18.0496 18.4641C17.9562 18.5018 17.8562 18.5204 17.7555 18.5186C17.6548 18.5168 17.5555 18.4948 17.4635 18.4538C17.3715 18.4128 17.2887 18.3537 17.22 18.28L13.747 14.807C12.648 15.7055 11.3165 16.2736 9.90743 16.4453C8.49832 16.6171 7.0694 16.3854 5.78674 15.7772C4.50408 15.1691 3.42036 14.2093 2.66152 13.0096C1.90269 11.8099 1.49991 10.4195 1.5 8.99999Z" fill="currentColor"></path>
  </symbol>
  <symbol id="bullet-list" viewBox="0 0 20 20" fill="none">
    <path fill-rule="evenodd" clip-rule="evenodd" d="M4 3C4 3.26522 3.89464 3.51957 3.70711 3.70711C3.51957 3.89464 3.26522 4 3 4C2.73478 4 2.48043 3.89464 2.29289 3.70711C2.10536 3.51957 2 3.26522 2 3C2 2.73478 2.10536 2.48043 2.29289 2.29289C2.48043 2.10536 2.73478 2 3 2C3.26522 2 3.51957 2.10536 3.70711 2.29289C3.89464 2.48043 4 2.73478 4 3ZM7 3C7 2.80109 7.07902 2.61032 7.21967 2.46967C7.36032 2.32902 7.55109 2.25 7.75 2.25H17.75C17.9489 2.25 18.1397 2.32902 18.2803 2.46967C18.421 2.61032 18.5 2.80109 18.5 3C18.5 3.19891 18.421 3.38968 18.2803 3.53033C18.1397 3.67098 17.9489 3.75 17.75 3.75H7.75C7.55109 3.75 7.36032 3.67098 7.21967 3.53033C7.07902 3.38968 7 3.19891 7 3ZM7.75 9.25C7.55109 9.25 7.36032 9.32902 7.21967 9.46967C7.07902 9.61032 7 9.80109 7 10C7 10.1989 7.07902 10.3897 7.21967 10.5303C7.36032 10.671 7.55109 10.75 7.75 10.75H17.75C17.9489 10.75 18.1397 10.671 18.2803 10.5303C18.421 10.3897 18.5 10.1989 18.5 10C18.5 9.80109 18.421 9.61032 18.2803 9.46967C18.1397 9.32902 17.9489 9.25 17.75 9.25H7.75ZM7.75 16.25C7.55109 16.25 7.36032 16.329 7.21967 16.4697C7.07902 16.6103 7 16.8011 7 17C7 17.1989 7.07902 17.3897 7.21967 17.5303C7.36032 17.671 7.55109 17.75 7.75 17.75H17.75C17.9489 17.75 18.1397 17.671 18.2803 17.5303C18.421 17.3897 18.5 17.1989 18.5 17C18.5 16.8011 18.421 16.6103 18.2803 16.4697C18.1397 16.329 17.9489 16.25 17.75 16.25H7.75ZM3 11C3.26522 11 3.51957 10.8946 3.70711 10.7071C3.89464 10.5196 4 10.2652 4 10C4 9.73478 3.89464 9.48043 3.70711 9.29289C3.51957 9.10536 3.26522 9 3 9C2.73478 9 2.48043 9.10536 2.29289 9.29289C2.10536 9.48043 2 9.73478 2 10C2 10.2652 2.10536 10.5196 2.29289 10.7071C2.48043 10.8946 2.73478 11 3 11ZM3 18C3.26522 18 3.51957 17.8946 3.70711 17.7071C3.89464 17.5196 4 17.2652 4 17C4 16.7348 3.89464 16.4804 3.70711 16.2929C3.51957 16.1054 3.26522 16 3 16C2.73478 16 2.48043 16.1054 2.29289 16.2929C2.10536 16.4804 2 16.7348 2 17C2 17.2652 2.10536 17.5196 2.29289 17.7071C2.48043 17.8946 2.73478 18 3 18Z" fill="currentColor"></path>
  </symbol>

  <symbol id="number-list" width="20" height="20" viewBox="0 0 20 20" fill="none">
    <path fill-rule="evenodd" clip-rule="evenodd" d="M3.792 2.09402C3.85639 2.14035 3.90883 2.20133 3.945 2.27192C3.98117 2.34252 4.00002 2.4207 4 2.50002V6.00002H5C5.13261 6.00002 5.25979 6.0527 5.35355 6.14647C5.44732 6.24024 5.5 6.36742 5.5 6.50002C5.5 6.63263 5.44732 6.75981 5.35355 6.85358C5.25979 6.94735 5.13261 7.00002 5 7.00002H2C1.86739 7.00002 1.74021 6.94735 1.64645 6.85358C1.55268 6.75981 1.5 6.63263 1.5 6.50002C1.5 6.36742 1.55268 6.24024 1.64645 6.14647C1.74021 6.0527 1.86739 6.00002 2 6.00002H3V3.19402L2.158 3.47402C2.03385 3.51023 1.9005 3.49693 1.78595 3.43691C1.67139 3.37689 1.58455 3.27482 1.54366 3.15214C1.50276 3.02945 1.51099 2.89569 1.56662 2.77894C1.62225 2.6622 1.72095 2.57155 1.842 2.52602L3.342 2.02602C3.41704 2.00095 3.49696 1.99404 3.57519 2.00586C3.65341 2.01768 3.72772 2.0479 3.792 2.09402ZM7.75 3.50002C7.55109 3.50002 7.36032 3.57904 7.21967 3.71969C7.07902 3.86035 7 4.05111 7 4.25002C7 4.44894 7.07902 4.6397 7.21967 4.78035C7.36032 4.92101 7.55109 5.00002 7.75 5.00002H17.75C17.9489 5.00002 18.1397 4.92101 18.2803 4.78035C18.421 4.6397 18.5 4.44894 18.5 4.25002C18.5 4.05111 18.421 3.86035 18.2803 3.71969C18.1397 3.57904 17.9489 3.50002 17.75 3.50002H7.75ZM7 10.75C7 10.5511 7.07902 10.3603 7.21967 10.2197C7.36032 10.079 7.55109 10 7.75 10H17.75C17.9489 10 18.1397 10.079 18.2803 10.2197C18.421 10.3603 18.5 10.5511 18.5 10.75C18.5 10.9489 18.421 11.1397 18.2803 11.2804C18.1397 11.421 17.9489 11.5 17.75 11.5H7.75C7.55109 11.5 7.36032 11.421 7.21967 11.2804C7.07902 11.1397 7 10.9489 7 10.75ZM7 17.25C7 17.0511 7.07902 16.8603 7.21967 16.7197C7.36032 16.579 7.55109 16.5 7.75 16.5H17.75C17.9489 16.5 18.1397 16.579 18.2803 16.7197C18.421 16.8603 18.5 17.0511 18.5 17.25C18.5 17.4489 18.421 17.6397 18.2803 17.7804C18.1397 17.921 17.9489 18 17.75 18H7.75C7.55109 18 7.36032 17.921 7.21967 17.7804C7.07902 17.6397 7 17.4489 7 17.25ZM2.707 13.89C2.80031 13.7684 2.9204 13.67 3.05793 13.6024C3.19546 13.5347 3.34674 13.4997 3.5 13.5C3.99 13.5 4.25 13.88 4.25 14.25C4.25 14.314 4.217 14.444 4.077 14.659C3.90078 14.9134 3.70198 15.1514 3.483 15.37C3.227 15.637 2.931 15.918 2.613 16.218L2.525 16.302C2.22789 16.5794 1.93486 16.8611 1.646 17.147C1.57624 17.217 1.52877 17.3061 1.5096 17.403C1.49044 17.5 1.50042 17.6004 1.5383 17.6917C1.57617 17.7829 1.64024 17.8609 1.72242 17.9158C1.80459 17.9707 1.90118 18 2 18H5C5.13261 18 5.25979 17.9473 5.35355 17.8536C5.44732 17.7598 5.5 17.6326 5.5 17.5C5.5 17.3674 5.44732 17.2402 5.35355 17.1465C5.25979 17.0527 5.13261 17 5 17H3.242L3.3 16.945C3.616 16.647 3.929 16.35 4.204 16.063C4.46673 15.799 4.70472 15.5115 4.915 15.204C5.095 14.927 5.25 14.6 5.25 14.25C5.25 13.463 4.668 12.5 3.5 12.5C3.12052 12.4996 2.74877 12.6072 2.42823 12.8104C2.10769 13.0135 1.85163 13.3037 1.69 13.647C1.66196 13.7064 1.6459 13.7708 1.64274 13.8364C1.63958 13.9021 1.64937 13.9677 1.67157 14.0295C1.69376 14.0914 1.72792 14.1482 1.77209 14.1969C1.81626 14.2455 1.86958 14.285 1.929 14.313C1.98842 14.3411 2.05279 14.3571 2.11842 14.3603C2.18405 14.3634 2.24965 14.3537 2.3115 14.3315C2.37334 14.3093 2.43021 14.2751 2.47885 14.2309C2.5275 14.1868 2.56696 14.1334 2.595 14.074C2.62557 14.0088 2.66312 13.9471 2.707 13.89Z" fill="currentColor"></path>
  </symbol>

  <symbol id="three-dots-vertical" width="20" height="20" viewBox="0 0 20 20" fill="none">
    <path fill-rule="evenodd" clip-rule="evenodd" d="M10 5.5C9.53587 5.5 9.09075 5.31563 8.76256 4.98744C8.43437 4.65925 8.25 4.21413 8.25 3.75C8.25 3.28587 8.43437 2.84075 8.76256 2.51256C9.09075 2.18437 9.53587 2 10 2C10.4641 2 10.9092 2.18437 11.2374 2.51256C11.5656 2.84075 11.75 3.28587 11.75 3.75C11.75 4.21413 11.5656 4.65925 11.2374 4.98744C10.9092 5.31563 10.4641 5.5 10 5.5ZM10 11.75C9.77019 11.75 9.54262 11.7047 9.3303 11.6168C9.11798 11.5288 8.92507 11.3999 8.76256 11.2374C8.60006 11.0749 8.47116 10.882 8.38321 10.6697C8.29527 10.4574 8.25 10.2298 8.25 10C8.25 9.77019 8.29527 9.54262 8.38321 9.3303C8.47116 9.11798 8.60006 8.92507 8.76256 8.76256C8.92507 8.60006 9.11798 8.47116 9.3303 8.38321C9.54262 8.29527 9.77019 8.25 10 8.25C10.4641 8.25 10.9092 8.43437 11.2374 8.76256C11.5656 9.09075 11.75 9.53587 11.75 10C11.75 10.4641 11.5656 10.9092 11.2374 11.2374C10.9092 11.5656 10.4641 11.75 10 11.75ZM8.25 16.25C8.25 16.4798 8.29527 16.7074 8.38321 16.9197C8.47116 17.132 8.60006 17.3249 8.76256 17.4874C8.92507 17.6499 9.11798 17.7788 9.3303 17.8668C9.54262 17.9547 9.77019 18 10 18C10.2298 18 10.4574 17.9547 10.6697 17.8668C10.882 17.7788 11.0749 17.6499 11.2374 17.4874C11.3999 17.3249 11.5288 17.132 11.6168 16.9197C11.7047 16.7074 11.75 16.4798 11.75 16.25C11.75 15.7859 11.5656 15.3408 11.2374 15.0126C10.9092 14.6844 10.4641 14.5 10 14.5C9.53587 14.5 9.09075 14.6844 8.76256 15.0126C8.43437 15.3408 8.25 15.7859 8.25 16.25Z" fill="currentColor"></path>
  </symbol>

  <symbol id="italic" width="20" height="20" viewBox="0 0 20 20" fill="none">
    <path fill-rule="evenodd" clip-rule="evenodd" d="M7 2.75C7 2.55109 7.07902 2.36032 7.21967 2.21967C7.36032 2.07902 7.55109 2 7.75 2H15.25C15.4489 2 15.6397 2.07902 15.7803 2.21967C15.921 2.36032 16 2.55109 16 2.75C16 2.94891 15.921 3.13968 15.7803 3.28033C15.6397 3.42098 15.4489 3.5 15.25 3.5H12.3L9.7 16.5H12.25C12.4489 16.5 12.6397 16.579 12.7803 16.7197C12.921 16.8603 13 17.0511 13 17.25C13 17.4489 12.921 17.6397 12.7803 17.7803C12.6397 17.921 12.4489 18 12.25 18H4.75C4.55109 18 4.36032 17.921 4.21967 17.7803C4.07902 17.6397 4 17.4489 4 17.25C4 17.0511 4.07902 16.8603 4.21967 16.7197C4.36032 16.579 4.55109 16.5 4.75 16.5H7.7L10.3 3.5H7.75C7.55109 3.5 7.36032 3.42098 7.21967 3.28033C7.07902 3.13968 7 2.94891 7 2.75Z" fill="currentColor"></path>
  </symbol>

  <symbol id="files" width="20" height="20" viewBox="0 0 20 20" fill="none">
    <path fill-rule="evenodd" clip-rule="evenodd" d="M8.85988 1.32797C9.20169 1.11421 9.59672 1.00085 9.99988 1.00085C10.403 1.00085 10.7981 1.11421 11.1399 1.32797L17.2579 5.15197C17.4864 5.29493 17.6749 5.49365 17.8055 5.72945C17.9361 5.96526 18.0047 6.2304 18.0047 6.49997C18.0047 6.76954 17.9361 7.03469 17.8055 7.27049C17.6749 7.5063 17.4864 7.70501 17.2579 7.84797L11.1399 11.672C10.7981 11.8857 10.403 11.9991 9.99988 11.9991C9.59672 11.9991 9.20169 11.8857 8.85988 11.672L2.74188 7.84797C2.51334 7.70501 2.32489 7.5063 2.19426 7.27049C2.06362 7.03469 1.99508 6.76954 1.99508 6.49997C1.99508 6.2304 2.06362 5.96526 2.19426 5.72945C2.32489 5.49365 2.51334 5.29493 2.74188 5.15197L8.85988 1.32797ZM10.3449 2.59997C10.2415 2.53521 10.1219 2.50086 9.99988 2.50086C9.87786 2.50086 9.7583 2.53521 9.65488 2.59997L3.53688 6.42397C3.52408 6.43209 3.51353 6.44332 3.50622 6.45661C3.49892 6.46989 3.49509 6.48481 3.49509 6.49997C3.49509 6.51514 3.49892 6.53005 3.50622 6.54334C3.51353 6.55663 3.52408 6.56785 3.53688 6.57597L9.65488 10.4C9.7583 10.4647 9.87786 10.4991 9.99988 10.4991C10.1219 10.4991 10.2415 10.4647 10.3449 10.4L16.4629 6.57597C16.4757 6.56785 16.4862 6.55663 16.4935 6.54334C16.5008 6.53005 16.5047 6.51514 16.5047 6.49997C16.5047 6.48481 16.5008 6.46989 16.4935 6.45661C16.4862 6.44332 16.4757 6.43209 16.4629 6.42397L10.3439 2.59997H10.3449ZM2.09888 10.062C2.20422 9.89335 2.3722 9.77345 2.56591 9.72864C2.75961 9.68382 2.96318 9.71775 3.13188 9.82297L9.65488 13.9C9.75786 13.9648 9.87704 13.9993 9.99873 13.9995C10.1204 13.9997 10.2397 13.9655 10.3429 13.901L16.8619 9.82697C17.0306 9.72155 17.2342 9.68745 17.428 9.73218C17.6218 9.77691 17.79 9.8968 17.8954 10.0655C18.0008 10.2341 18.0349 10.4378 17.9902 10.6316C17.9454 10.8254 17.8256 10.9935 17.6569 11.099L11.1369 15.173C10.7955 15.3865 10.401 15.4997 9.99838 15.4997C9.59575 15.4997 9.20124 15.3865 8.85988 15.173L2.33688 11.095C2.16842 10.9895 2.04873 10.8214 2.00411 10.6277C1.95948 10.434 1.99357 10.2305 2.09888 10.062ZM3.13188 13.323C3.04836 13.2708 2.95537 13.2355 2.85823 13.2193C2.7611 13.203 2.6617 13.206 2.56573 13.2282C2.46976 13.2503 2.3791 13.2912 2.29891 13.3483C2.21872 13.4055 2.15058 13.478 2.09838 13.5615C1.99296 13.7301 1.95886 13.9338 2.00358 14.1276C2.04831 14.3214 2.1682 14.4895 2.33688 14.595L8.85988 18.672C9.20114 18.8856 9.59561 18.999 9.99824 18.9992C10.4009 18.9994 10.7954 18.8863 11.1369 18.673L17.6569 14.599C17.8256 14.4935 17.9454 14.3254 17.9902 14.1316C18.0349 13.9378 18.0008 13.7341 17.8954 13.5655C17.79 13.3968 17.6218 13.2769 17.428 13.2322C17.2342 13.1875 17.0306 13.2215 16.8619 13.327L10.3419 17.401C10.2389 17.4655 10.1199 17.4997 9.99838 17.4997C9.87688 17.4997 9.75784 17.4655 9.65488 17.401L3.13188 13.323Z" fill="currentColor"></path>
  </symbol>

  <symbol id="caret-down" width="20" height="20" viewBox="0 0 20 20" fill="none">
    <path fill-rule="evenodd" clip-rule="evenodd" d="M14.4446 8.33336C14.4446 8.02225 14.2001 7.77781 13.889 7.77781H6.11186C6.00453 7.77659 5.89918 7.80681 5.80882 7.86474C5.71846 7.92267 5.64702 8.00579 5.60331 8.10383C5.55961 8.20188 5.54555 8.31057 5.56287 8.41651C5.58019 8.52245 5.62813 8.621 5.70078 8.70002L9.58937 13.1444C9.68936 13.2555 9.8338 13.3333 10.0004 13.3333C10.1671 13.3333 10.3115 13.2555 10.4115 13.1444L14.3001 8.70002C14.389 8.60002 14.4446 8.4778 14.4446 8.33336Z" fill="currentColor"></path>
  </symbol>

  <symbol id="caret-right" width="20" height="20" viewBox="0 0 20 20" fill="none">
    <path fill-rule="evenodd" clip-rule="evenodd" d="M7.77775 6.11111C7.46665 6.11111 7.2222 6.35554 7.2222 6.66662L7.2222 14.4438C7.22099 14.5511 7.25121 14.6565 7.30914 14.7468C7.36707 14.8372 7.45018 14.9086 7.54823 14.9523C7.64627 14.9961 7.75496 15.0101 7.8609 14.9928C7.96684 14.9755 8.0654 14.9275 8.14442 14.8549L12.5888 10.9663C12.6999 10.8663 12.7777 10.7219 12.7777 10.5552C12.7777 10.3886 12.6999 10.2441 12.5888 10.1441L8.14442 6.25554C8.04442 6.16666 7.9222 6.11111 7.77775 6.11111Z" fill="currentColor"></path>
  </symbol>

  <symbol id="lock" width="20" height="20" viewBox="0 0 20 20" fill="none">
    <path fill-rule="evenodd" clip-rule="evenodd" d="M10 1.5C8.80653 1.5 7.66193 1.97411 6.81802 2.81802C5.97411 3.66193 5.5 4.80653 5.5 6V7.5H5.25C4.65326 7.5 4.08097 7.73705 3.65901 8.15901C3.23705 8.58097 3 9.15326 3 9.75V16.25C3 17.216 3.784 18 4.75 18H15.25C15.7141 18 16.1592 17.8156 16.4874 17.4874C16.8156 17.1592 17 16.7141 17 16.25V9.75C17 9.15326 16.7629 8.58097 16.341 8.15901C15.919 7.73705 15.3467 7.5 14.75 7.5H14.5V6C14.5 4.80653 14.0259 3.66193 13.182 2.81802C12.3381 1.97411 11.1935 1.5 10 1.5ZM13 7.5V6C13 5.20435 12.6839 4.44129 12.1213 3.87868C11.5587 3.31607 10.7956 3 10 3C9.20435 3 8.44129 3.31607 7.87868 3.87868C7.31607 4.44129 7 5.20435 7 6V7.5H13ZM4.5 9.75C4.5 9.55109 4.57902 9.36032 4.71967 9.21967C4.86032 9.07902 5.05109 9 5.25 9H14.75C14.9489 9 15.1397 9.07902 15.2803 9.21967C15.421 9.36032 15.5 9.55109 15.5 9.75V16.25C15.5 16.3163 15.4737 16.3799 15.4268 16.4268C15.3799 16.4737 15.3163 16.5 15.25 16.5H4.75C4.6837 16.5 4.62011 16.4737 4.57322 16.4268C4.52634 16.3799 4.5 16.3163 4.5 16.25V9.75Z" fill="currentColor"></path>
  </symbol>

  <symbol id="send-mail" width="20" height="20" viewBox="0 0 20 20" fill="none">
    <path fill-rule="evenodd" clip-rule="evenodd" d="M4.25015 2.5C3.52081 2.5 2.82134 2.78973 2.30561 3.30546C1.78989 3.82118 1.50015 4.52065 1.50015 5.25V9.25C1.50015 9.44891 1.57917 9.63968 1.71982 9.78033C1.86048 9.92098 2.05124 10 2.25015 10C2.44907 10 2.63983 9.92098 2.78048 9.78033C2.92114 9.63968 3.00015 9.44891 3.00015 9.25V5.25C3.00015 4.56 3.56015 4 4.25015 4H15.7502C16.4402 4 17.0002 4.56 17.0002 5.25V14.75C17.0002 15.44 16.4402 16 15.7502 16H7.75015C7.55124 16 7.36048 16.079 7.21982 16.2197C7.07917 16.3603 7.00015 16.5511 7.00015 16.75C7.00015 16.9489 7.07917 17.1397 7.21982 17.2803C7.36048 17.421 7.55124 17.5 7.75015 17.5H15.7502C16.4795 17.5 17.179 17.2103 17.6947 16.6945C18.2104 16.1788 18.5002 15.4793 18.5002 14.75V5.25C18.5002 4.52065 18.2104 3.82118 17.6947 3.30546C17.179 2.78973 16.4795 2.5 15.7502 2.5H4.25015ZM5.76615 6.206C5.69525 6.13552 5.61098 6.07993 5.51828 6.0425C5.42559 6.00506 5.32635 5.98653 5.22639 5.988C5.12643 5.98947 5.02778 6.01091 4.93622 6.05106C4.84467 6.09121 4.76207 6.14925 4.69327 6.22178C4.62447 6.29431 4.57087 6.37986 4.53561 6.47341C4.50036 6.56695 4.48416 6.6666 4.48797 6.7665C4.49177 6.86639 4.51552 6.96452 4.55779 7.05511C4.60007 7.1457 4.66003 7.22692 4.73415 7.294L9.48415 11.794C9.62348 11.9261 9.80816 11.9997 10.0002 11.9997C10.1921 11.9997 10.3768 11.9261 10.5162 11.794L15.2662 7.294C15.4051 7.15591 15.4845 6.96896 15.4873 6.77311C15.4902 6.57726 15.4164 6.38805 15.2816 6.24594C15.1468 6.10382 14.9617 6.02009 14.766 6.01262C14.5703 6.00516 14.3794 6.07456 14.2342 6.206L10.0002 10.216L5.76615 6.206ZM5.00015 13.56L6.22015 14.78C6.36167 14.9166 6.55116 14.9921 6.7478 14.9903C6.94445 14.9885 7.13253 14.9095 7.27152 14.7704C7.41051 14.6312 7.4893 14.4431 7.49091 14.2465C7.49253 14.0498 7.41684 13.8604 7.28015 13.719L4.78015 11.219C4.63953 11.0785 4.4489 10.9997 4.25015 10.9997C4.0514 10.9997 3.86078 11.0785 3.72015 11.219L1.22015 13.719C1.14647 13.7877 1.08736 13.8705 1.04637 13.9625C1.00538 14.0545 0.983339 14.1538 0.981562 14.2545C0.979785 14.3552 0.99831 14.4552 1.03603 14.5486C1.07375 14.642 1.1299 14.7268 1.20112 14.798C1.27233 14.8693 1.35717 14.9254 1.45056 14.9631C1.54394 15.0008 1.64397 15.0194 1.74468 15.0176C1.84538 15.0158 1.94469 14.9938 2.03669 14.9528C2.12869 14.9118 2.21149 14.8527 2.28015 14.779L3.50015 13.559V16.749C3.50015 16.9479 3.57917 17.1387 3.71982 17.2793C3.86048 17.42 4.05124 17.499 4.25015 17.499C4.44907 17.499 4.63983 17.42 4.78048 17.2793C4.92114 17.1387 5.00015 16.9479 5.00015 16.749V13.559V13.56Z" fill="currentColor"></path>
  </symbol>

  <symbol id="add-user" width="20" height="20" viewBox="0 0 20 20" fill="none">
    <path fill-rule="evenodd" clip-rule="evenodd" d="M6.00017 6.673C6.00017 5.632 6.35217 4.849 6.87417 4.328C7.39817 3.805 8.13917 3.5 9.00017 3.5C9.86017 3.5 10.6022 3.805 11.1262 4.328C11.6482 4.849 12.0002 5.632 12.0002 6.673C11.9967 7.65591 11.6216 8.60113 10.9502 9.319C10.3212 9.997 9.57017 10.333 9.00017 10.333C8.43017 10.333 7.67917 9.997 7.05017 9.319C6.37876 8.60113 6.00367 7.65591 6.00017 6.673ZM9.00017 2C7.77817 2 6.64417 2.438 5.81417 3.267C4.98017 4.1 4.50017 5.277 4.50017 6.673C4.50196 7.4639 4.67766 8.24474 5.01482 8.96018C5.35197 9.67562 5.84234 10.3082 6.45117 10.813C5.80635 10.969 5.17885 11.1894 4.57817 11.471C3.11417 12.164 1.76717 13.299 1.13017 15.028C0.830166 15.839 1.06317 16.618 1.55317 17.16C2.02817 17.686 2.74617 18 3.50017 18H12.2502C12.4491 18 12.6398 17.921 12.7805 17.7803C12.9211 17.6397 13.0002 17.4489 13.0002 17.25C13.0002 17.0511 12.9211 16.8603 12.7805 16.7197C12.6398 16.579 12.4491 16.5 12.2502 16.5H3.50017C3.15017 16.5 2.84317 16.35 2.66617 16.154C2.50317 15.974 2.45417 15.772 2.53717 15.547C3.00017 14.291 3.99617 13.407 5.22017 12.827C6.44917 12.246 7.85317 12 9.00017 12C9.90717 12 10.9812 12.154 12.0042 12.51C12.1908 12.5709 12.3938 12.5563 12.5698 12.4692C12.7457 12.382 12.8804 12.2294 12.9451 12.0441C13.0097 11.8587 12.9992 11.6554 12.9156 11.4778C12.832 11.3002 12.6822 11.1624 12.4982 11.094C12.1832 10.984 11.8662 10.891 11.5482 10.814C12.157 10.3092 12.6474 9.67662 12.9845 8.96118C13.3217 8.24574 13.4974 7.4649 13.4992 6.674C13.5002 5.277 13.0192 4.099 12.1862 3.267C11.3562 2.438 10.2232 2 9.00017 2ZM15.5002 11C15.6991 11 15.8898 11.079 16.0305 11.2197C16.1711 11.3603 16.2502 11.5511 16.2502 11.75V13.75H18.2502C18.4491 13.75 18.6398 13.829 18.7805 13.9697C18.9211 14.1103 19.0002 14.3011 19.0002 14.5C19.0002 14.6989 18.9211 14.8897 18.7805 15.0303C18.6398 15.171 18.4491 15.25 18.2502 15.25H16.2502V17.25C16.2502 17.4489 16.1711 17.6397 16.0305 17.7803C15.8898 17.921 15.6991 18 15.5002 18C15.3013 18 15.1105 17.921 14.9698 17.7803C14.8292 17.6397 14.7502 17.4489 14.7502 17.25V15.25H12.7502C12.5513 15.25 12.3605 15.171 12.2198 15.0303C12.0792 14.8897 12.0002 14.6989 12.0002 14.5C12.0002 14.3011 12.0792 14.1103 12.2198 13.9697C12.3605 13.829 12.5513 13.75 12.7502 13.75H14.7502V11.75C14.7502 11.5511 14.8292 11.3603 14.9698 11.2197C15.1105 11.079 15.3013 11 15.5002 11Z" fill="currentColor"></path>
  </symbol>

  <symbol id="close" width="20" height="20" viewBox="0 0 20 20" fill="none">
    <path fill-rule="evenodd" clip-rule="evenodd" d="M16.5298 3.47001C16.6703 3.61064 16.7492 3.80126 16.7492 4.00001C16.7492 4.19876 16.6703 4.38939 16.5298 4.53001L11.0598 10L16.5298 15.47C16.6623 15.6122 16.7344 15.8002 16.731 15.9945C16.7276 16.1888 16.6489 16.3742 16.5115 16.5116C16.3741 16.649 16.1887 16.7278 15.9944 16.7312C15.8001 16.7346 15.612 16.6625 15.4698 16.53L9.99985 11.06L4.52985 16.53C4.38767 16.6625 4.19963 16.7346 4.00532 16.7312C3.81102 16.7278 3.62564 16.649 3.48822 16.5116C3.35081 16.3742 3.2721 16.1888 3.26867 15.9945C3.26524 15.8002 3.33737 15.6122 3.46985 15.47L8.93985 10L3.46985 4.53001C3.33737 4.38784 3.26524 4.19979 3.26867 4.00549C3.2721 3.81119 3.35081 3.6258 3.48822 3.48839C3.62564 3.35098 3.81102 3.27226 4.00532 3.26884C4.19963 3.26541 4.38767 3.33753 4.52985 3.47001L9.99985 8.94001L15.4698 3.47001C15.6105 3.32956 15.8011 3.25067 15.9998 3.25067C16.1986 3.25067 16.3892 3.32956 16.5298 3.47001Z" fill="currentColor"></path>
  </symbol>

  <symbol id="huddle" width="20" height="20" viewBox="0 0 20 20" fill="none">
    <path d="M18.8727 9.0216C18.8417 8.70279 18.8273 8.37996 18.7611 8.06917C18.5276 6.96635 18.0544 5.94575 17.4323 5.00735C17.0376 4.41383 16.6119 3.82633 16.0291 3.36716C15.5889 3.02228 15.2045 2.60522 14.7003 2.34254C14.1485 2.05782 13.605 1.74101 13.0222 1.53448C12.4787 1.34199 11.8876 1.27983 11.3193 1.1495C10.8047 1.0312 10.2819 0.995104 9.75491 1.00112C9.54412 1.00513 9.33126 1.02518 9.12253 1.05125C8.68855 1.10338 8.25043 1.13747 7.82471 1.2297C7.089 1.39011 6.40496 1.68286 5.73332 2.02574C4.89635 2.45283 4.21851 3.06439 3.5324 3.66191C3.14388 4.00078 2.84422 4.44993 2.55696 4.88303C2.13951 5.50663 1.79852 6.17433 1.54433 6.87813C1.21988 7.77642 1.02768 8.70279 1.00909 9.65522C0.992553 10.6077 1.00495 11.5601 1.00495 12.5105C1.00495 13.5211 0.998752 14.5317 1.00909 15.5423C1.01115 15.7688 1.04835 15.9994 1.11448 16.218C1.4782 17.4451 2.29451 18.2893 3.5014 18.7685C4.05731 18.9891 4.65249 18.9931 5.24974 18.9991C5.82218 19.0051 6.33263 18.8848 6.78521 18.5399C7.1572 18.2572 7.44239 17.9083 7.55399 17.4672C7.63665 17.1423 7.64492 16.7955 7.64905 16.4586C7.65938 15.2555 7.65525 14.0545 7.64905 12.8514C7.64905 12.5947 7.64285 12.3341 7.58912 12.0834C7.47339 11.546 7.18407 11.1069 6.72115 10.7801C6.36156 10.5254 5.97511 10.349 5.51219 10.369C5.2208 10.3811 4.92735 10.3831 4.63389 10.369C4.03458 10.339 3.48073 10.4673 2.95788 10.752C2.72229 10.8803 2.69749 10.8663 2.71196 10.6117C2.73676 10.1846 2.77396 9.75748 2.81529 9.33039C2.84422 9.03764 2.85662 8.73888 2.92688 8.45415C3.12321 7.67215 3.39187 6.91222 3.79279 6.2004C4.06971 5.70714 4.4169 5.26401 4.81162 4.85897C5.10921 4.55419 5.42746 4.25543 5.78498 4.02284C6.23343 3.73009 6.71082 3.46541 7.20887 3.2649C7.81025 3.02429 8.43229 2.84583 9.09773 2.79169C9.87684 2.72753 10.6518 2.72352 11.4082 2.87992C12.1294 3.0303 12.8238 3.28295 13.4686 3.65189C14.3221 4.14114 15.0702 4.74067 15.6509 5.52267C16.149 6.19238 16.5292 6.92425 16.7875 7.71627C17.1037 8.68875 17.2401 9.67928 17.2215 10.6939C17.2174 10.9024 17.1884 10.9265 17.0087 10.8182C16.4527 10.4813 15.8348 10.3911 15.1983 10.3731C14.8449 10.363 14.4915 10.369 14.1402 10.3731C14.0576 10.3731 13.9749 10.3911 13.8964 10.4152C13.1917 10.6277 12.7101 11.0688 12.4704 11.7506C12.3464 12.1015 12.3485 12.4624 12.3526 12.8293C12.3671 14.2229 12.3692 15.6184 12.365 17.012C12.365 17.5995 12.6688 18.0487 13.0697 18.4276C13.4913 18.8246 14.0121 19.0392 14.63 18.9951C15.0537 18.965 15.4773 18.9951 15.8989 18.9068C16.5375 18.7765 17.0851 18.4978 17.5997 18.1108C18.4966 17.4331 18.9678 16.5348 18.9657 15.4641C18.9616 13.3166 19.0897 11.1671 18.8748 9.0216H18.8727ZM2.70989 14.0524C2.70989 13.1201 3.5262 12.1596 4.43963 12.0794C4.82402 12.0453 5.21254 12.0574 5.59899 12.0834C5.68992 12.0894 5.80978 12.2198 5.84698 12.318C5.90071 12.4584 5.90691 12.6228 5.90898 12.7772C5.91518 13.4028 5.91105 14.0284 5.91105 14.656C5.91105 15.2816 5.91311 15.9072 5.90898 16.5348C5.90898 16.6812 5.90485 16.8356 5.85525 16.9719C5.79532 17.1403 5.64652 17.2767 5.45846 17.2787C5.08441 17.2847 4.70002 17.2987 4.33837 17.2266C3.62126 17.0802 3.13354 16.625 2.87729 15.9693C2.76982 15.6926 2.73882 15.3798 2.71609 15.0811C2.68923 14.7402 2.70989 14.3973 2.70989 14.0545V14.0524ZM17.2112 15.5302C17.1967 15.6686 17.1657 15.8009 17.1203 15.9292C17.1017 15.9834 17.081 16.0375 17.0562 16.0897C17.0521 16.0977 17.05 16.1057 17.0459 16.1137C16.7875 16.6591 16.2647 17.0742 15.6406 17.2205C15.591 17.2326 15.5372 17.2366 15.4876 17.2446C15.3492 17.2667 15.2066 17.2787 15.0619 17.2827C14.8656 17.2867 14.6651 17.2807 14.4709 17.2787C14.382 17.2787 14.3055 17.2426 14.2415 17.1804C14.2208 17.1604 14.2002 17.1363 14.1836 17.1103C14.1134 17.008 14.072 16.8636 14.072 16.7052C14.07 16.0034 14.072 15.3036 14.072 14.6019C14.072 13.9101 14.072 13.2163 14.072 12.5245C14.072 12.3341 14.1464 12.1817 14.2787 12.0995C14.3448 12.0574 14.4233 12.0313 14.5163 12.0293C14.971 12.0112 15.4318 11.9992 15.8679 12.1716C16.1614 12.2859 16.4135 12.4343 16.6181 12.6188C16.7069 12.699 16.7855 12.7892 16.8557 12.8835C17.0541 13.1481 17.1802 13.465 17.2132 13.8439C17.2153 13.876 17.2174 13.9081 17.2194 13.9402C17.2608 14.4675 17.2649 15.0049 17.2112 15.5302Z" fill="currentColor"></path>
  </symbol>

  <symbol id="lightbulb" width="20" height="20" viewBox="0 0 20 20" fill="none">
    <path d="M15.7174 5.20594C15.5529 4.58068 15.1811 3.91462 14.7692 3.41842C14.3211 2.87875 13.8229 2.37519 13.2337 1.99C12.0119 1.19287 10.5527 0.854489 9.10423 1.05778C7.8811 1.22898 6.72083 1.86361 5.85748 2.72628C5.34991 3.23318 4.88313 3.80561 4.56882 4.45696C4.24849 5.12101 4.092 5.7864 4.02312 6.51666C3.89071 7.91699 4.33275 9.36079 5.20212 10.4609C5.67224 11.0554 6.1952 11.6178 6.73554 12.1481C6.9676 12.3754 7.22306 12.5848 7.24647 12.9312C7.27255 13.3103 7.24847 13.6982 7.25115 14.078C7.25583 14.7608 7.34343 15.3834 7.9774 15.7633C8.28837 15.9498 8.6214 15.9772 8.97517 15.9759C9.35501 15.9746 9.73486 15.9759 10.1147 15.9759C10.4946 15.9759 10.8644 15.9759 11.2389 15.9766C11.8568 15.9773 12.4493 15.7017 12.6452 15.0785C12.7536 14.7341 12.7308 14.3589 12.7328 14.0025C12.7355 13.6333 12.678 13.2074 12.7415 12.8442C12.7997 12.5125 13.1401 12.2384 13.3641 12.0103C13.6356 11.7341 13.9112 11.4613 14.1726 11.1757C14.6695 10.6327 15.1229 10.0295 15.4533 9.36882C16.0973 8.08351 16.0746 6.56682 15.7161 5.20528L15.7174 5.20594ZM13.863 9.14546C13.546 9.67376 13.1281 10.1332 12.7027 10.5752C12.474 10.8133 12.244 11.0493 12.0133 11.2854C11.7986 11.5054 11.5472 11.7208 11.3994 11.9943C11.2522 12.2664 11.2583 12.5373 11.2516 12.8362C11.2442 13.1639 11.2476 13.4929 11.2462 13.8206C11.2449 14.0292 11.3164 14.3743 11.061 14.4606C10.9239 14.5067 10.7293 14.4753 10.5862 14.4753C10.4063 14.4753 10.2264 14.4753 10.0472 14.4753V14.4813C9.74489 14.4813 9.44195 14.4866 9.13968 14.4813C8.97784 14.4779 8.87954 14.4505 8.82269 14.3837C8.76251 14.3181 8.74378 14.2125 8.74311 14.0506C8.74178 13.7477 8.74713 13.4441 8.74646 13.1411C8.74512 12.8395 8.76585 12.5092 8.68426 12.2163C8.61271 11.9615 8.44151 11.7355 8.24289 11.5288C8.04227 11.3209 7.81557 11.1316 7.63634 10.9497C7.53202 10.844 7.4297 10.7364 7.32872 10.628C7.02645 10.3024 6.73956 9.96533 6.45735 9.62026C5.80198 8.81978 5.47363 7.78592 5.49569 6.75339C5.5191 5.65065 6.02668 4.66694 6.77901 3.87851C8.28034 2.30564 10.7694 2.05353 12.555 3.32011C12.8298 3.51538 13.0779 3.7374 13.2993 3.98149C13.7888 4.52049 14.1466 5.16783 14.3619 5.87133C14.6903 6.94465 14.4321 8.1992 13.8644 9.14546H13.863Z" fill="currentColor"></path>
    <path d="M9.99311 18.9745C9.34777 18.9745 7.99022 19.2179 8.00894 18.2008C8.01496 17.8691 8.25036 17.5655 8.57938 17.506C9.00738 17.4284 9.49623 17.4846 9.93091 17.4819C10.3843 17.4792 10.8712 17.4284 11.3199 17.4986C11.7031 17.5581 11.9793 17.8169 11.9779 18.2262C11.9766 18.5565 11.7385 18.9023 11.4001 18.9544C10.9507 19.0233 10.4485 18.9752 9.99311 18.9845C9.99311 18.9819 9.99311 18.9785 9.99311 18.9758V18.9745Z" fill="currentColor"></path>
  </symbol>

  <symbol id="pencil" width="20" height="20" viewBox="0 0 20 20" fill="none">
    <path fill-rule="evenodd" clip-rule="evenodd" d="M13.6162 3.44398C13.7322 3.32787 13.8701 3.23576 14.0217 3.17293C14.1734 3.11009 14.336 3.07774 14.5002 3.07774C14.6643 3.07774 14.8269 3.11009 14.9786 3.17293C15.1303 3.23576 15.2681 3.32787 15.3842 3.44398L16.5552 4.61598C16.6713 4.73205 16.7634 4.86987 16.8262 5.02155C16.8891 5.17322 16.9214 5.3358 16.9214 5.49998C16.9214 5.66416 16.8891 5.82673 16.8262 5.97841C16.7634 6.13009 16.6713 6.2679 16.5552 6.38398L15.5002 7.43898L12.5602 4.49998L13.6162 3.44398ZM11.5002 5.56098L4.42117 12.639L3.31917 16.681L7.36117 15.579L14.4392 8.49898L11.5002 5.56098ZM16.4452 2.38398C16.1898 2.12848 15.8866 1.9258 15.5528 1.78752C15.2191 1.64924 14.8614 1.57806 14.5002 1.57806C14.1389 1.57806 13.7812 1.64924 13.4475 1.78752C13.1138 1.9258 12.8105 2.12848 12.5552 2.38398L3.22017 11.72C3.1276 11.8122 3.06072 11.927 3.02617 12.053L1.52617 17.553C1.49157 17.6805 1.49128 17.8149 1.52531 17.9425C1.55934 18.0702 1.62648 18.1866 1.71996 18.28C1.81343 18.3733 1.92991 18.4404 2.05761 18.4743C2.18531 18.5082 2.31969 18.5077 2.44717 18.473L7.94717 16.973C8.07307 16.9387 8.18784 16.8722 8.28017 16.78L17.6162 7.44398C18.1319 6.92826 18.4216 6.2288 18.4216 5.49948C18.4216 4.77015 18.1319 4.0707 17.6162 3.55498L16.4452 2.38398Z" fill="currentColor"></path>
  </symbol>

  <symbol id="send-outline" width="20" height="20" viewBox="0 0 20 20" fill="none">
    <path fill-rule="evenodd" clip-rule="evenodd" d="M1.856 1.612C1.96477 1.54471 2.08894 1.50636 2.21671 1.50058C2.34448 1.49481 2.4716 1.5218 2.586 1.579L18.086 9.329C18.2107 9.39126 18.3155 9.48701 18.3888 9.60553C18.4621 9.72405 18.501 9.86065 18.501 10C18.501 10.1394 18.4621 10.276 18.3888 10.3945C18.3155 10.513 18.2107 10.6087 18.086 10.671L2.586 18.421C2.47162 18.4783 2.34448 18.5054 2.21667 18.4997C2.08885 18.494 1.96462 18.4558 1.85578 18.3885C1.74694 18.3213 1.65711 18.2273 1.59484 18.1155C1.53257 18.0038 1.49992 17.8779 1.5 17.75V11.704C1.5 11.024 1.802 10.414 2.28 10C2.03496 9.78889 1.83841 9.52734 1.70379 9.23324C1.56917 8.93915 1.49965 8.61944 1.5 8.296V2.25C1.50003 2.12213 1.53275 1.99639 1.59506 1.88472C1.65737 1.77306 1.74719 1.67918 1.856 1.612ZM3 3.464V8.296C2.99991 8.49099 3.07576 8.67835 3.21148 8.81836C3.34719 8.95837 3.5321 9.04002 3.727 9.046L10.273 9.25C10.4719 9.25 10.6627 9.32902 10.8033 9.46967C10.944 9.61032 11.023 9.80109 11.023 10C11.023 10.1989 10.944 10.3897 10.8033 10.5303C10.6627 10.671 10.4719 10.75 10.273 10.75L3.727 10.954C3.5321 10.96 3.34719 11.0416 3.21148 11.1816C3.07576 11.3217 2.99991 11.509 3 11.704V16.536L16.073 10L3 3.464Z" fill="currentColor"></path>
  </symbol>
   <symbol id="send-fill" viewBox="0 0 20 20" fill="none">
    <path d="M1.5 2.25001C1.50066 2.13017 1.52983 2.01221 1.58511 1.90588C1.64039 1.79955 1.72019 1.70791 1.8179 1.63853C1.91562 1.56915 2.02844 1.52403 2.14705 1.5069C2.26566 1.48977 2.38665 1.50112 2.5 1.54001L18.096 9.34701C18.2173 9.40762 18.3193 9.50082 18.3906 9.61616C18.4619 9.7315 18.4997 9.86441 18.4997 10C18.4997 10.1356 18.4619 10.2685 18.3906 10.3839C18.3193 10.4992 18.2173 10.5924 18.096 10.653L2.5 18.46L2.424 18.478C2.31391 18.5045 2.19926 18.5056 2.08866 18.4814C1.97806 18.4571 1.8744 18.4081 1.78546 18.3381C1.69653 18.268 1.62464 18.1787 1.57519 18.0768C1.52575 17.975 1.50004 17.8632 1.5 17.75V13.21C1.5 12 2.47 10.981 3.71 10.96L10.25 10.79C10.52 10.78 11 10.55 11 10C11 9.45001 10.5 9.21001 10.25 9.21001L3.71 9.04001C3.1203 9.02875 2.55852 8.78669 2.14531 8.36582C1.73211 7.94495 1.50042 7.37882 1.5 6.78901V2.25001Z" fill="currentColor"></path>
  </symbol>

  <symbol id="double-arrow" width="20" height="20" viewBox="0 0 20 20" fill="none">
    <path d="M1.10986 7.78003H18.8876L15.2829 2.78003" stroke="currentColor" stroke-width="1.66667" stroke-linecap="round" stroke-linejoin="round"></path>
    <path d="M18.8876 12.2245H1.10986L4.71457 17.2245" stroke="currentColor" stroke-width="1.66667" stroke-linecap="round" stroke-linejoin="round"></path>
  </symbol>

  <symbol id="content" width="20" height="20" viewBox="0 0 20 20" fill="none">
    <path fill-rule="evenodd" clip-rule="evenodd" d="M3.26303 2.70172C3.03049 2.70172 2.84198 2.89023 2.84198 3.12277V7.33331C2.84198 7.56585 3.03049 7.75436 3.26303 7.75436H7.19282C7.42536 7.75436 7.61387 7.56585 7.61387 7.33331V3.12277C7.61387 2.89023 7.42536 2.70172 7.19282 2.70172H3.26303ZM1.43848 3.12277C1.43848 2.1151 2.25536 1.29822 3.26303 1.29822H7.19282C8.20049 1.29822 9.01737 2.1151 9.01737 3.12277V7.33331C9.01737 8.34098 8.20049 9.15786 7.19282 9.15786H3.26303C2.25536 9.15786 1.43848 8.34098 1.43848 7.33331V3.12277ZM12.8065 2.70172C12.5739 2.70172 12.3854 2.89023 12.3854 3.12277V7.33331C12.3854 7.56585 12.5739 7.75436 12.8065 7.75436H16.7363C16.9688 7.75436 17.1573 7.56585 17.1573 7.33331V3.12277C17.1573 2.89023 16.9688 2.70172 16.7363 2.70172H12.8065ZM10.9819 3.12277C10.9819 2.1151 11.7988 1.29822 12.8065 1.29822H16.7363C17.7439 1.29822 18.5608 2.1151 18.5608 3.12277V7.33331C18.5608 8.34098 17.7439 9.15786 16.7363 9.15786H12.8065C11.7988 9.15786 10.9819 8.34098 10.9819 7.33331V3.12277ZM3.26303 12.2455C3.03049 12.2455 2.84198 12.4341 2.84198 12.6666V16.8771C2.84198 17.1097 3.03049 17.2982 3.26303 17.2982H7.19282C7.42536 17.2982 7.61387 17.1097 7.61387 16.8771V12.6666C7.61387 12.4341 7.42536 12.2455 7.19282 12.2455H3.26303ZM1.43848 12.6666C1.43848 11.6589 2.25536 10.842 3.26303 10.842H7.19282C8.20049 10.842 9.01737 11.6589 9.01737 12.6666V16.8771C9.01737 17.8848 8.20049 18.7017 7.19282 18.7017H3.26303C2.25536 18.7017 1.43848 17.8848 1.43848 16.8771V12.6666ZM12.8065 12.2455C12.5739 12.2455 12.3854 12.4341 12.3854 12.6666V16.8771C12.3854 17.1097 12.5739 17.2982 12.8065 17.2982H16.7363C16.9688 17.2982 17.1573 17.1097 17.1573 16.8771V12.6666C17.1573 12.4341 16.9688 12.2455 16.7363 12.2455H12.8065ZM10.9819 12.6666C10.9819 11.6589 11.7988 10.842 12.8065 10.842H16.7363C17.7439 10.842 18.5608 11.6589 18.5608 12.6666V16.8771C18.5608 17.8848 17.7439 18.7017 16.7363 18.7017H12.8065C11.7988 18.7017 10.9819 17.8848 10.9819 16.8771V12.6666Z" fill="currentColor"></path>
  </symbol>
</svg>